<?xml version="1.0" standalone="no"?><!DOCTYPE svg PUBLIC "-//W3C//DTD SVG 1.1//EN"   "http://www.w3.org/Graphics/SVG/1.1/DTD/svg11.dtd"><svg width="864pt" height="864pt" viewBox="0 0 864 864" version="1.1"    xmlns="http://www.w3.org/2000/svg" xmlns:xlink="http://www.w3.org/1999/xlink">  <defs>  </defs>   <path id="Path0" stroke-width="0.7" stroke="#000000" stroke-opacity="1" fill="#990000" fill-opacity="1" fill-rule="evenodd" stroke-linecap="round" stroke-linejoin="round" d="M417.6,828.3 C409.4,824.3 406.7,812.3 411.6,801.5 414.2,795.9 417.2,792.6 434.5,776.6 439.5,771.9 439.8,771.1 439,763.2 437.1,744.5 435.6,738.8 432.6,738.2 427.7,737.3 423.4,742.6 423.4,749.6 423.4,758.8 419.4,759.5 412.5,751.6 409.5,748.1 405.9,742.5 404.4,739.2 402.6,735.2 400.5,733.1 398.5,733.1 395.7,733.1 395.6,734 396.5,743.1 397.5,752.2 398.2,753.7 404.8,760.2 415.9,771.2 415.9,773.3 404.2,785 398.8,790.5 393.3,797.1 391.9,799.9 388.8,806.1 388.8,818.7 391.9,822.8 393.2,824.5 394.3,826.5 394.3,827.3 394.3,828.7 386,827.1 384.6,825.4 384.2,824.8 380.1,821.7 375.6,818.4 366.9,812.1 362.4,806.4 353.8,790.5 350.9,785.2 347.3,779 345.8,776.8 344.3,774.6 341,768.9 338.5,764.2 336,759.6 333.4,755.8 332.6,755.8 331.9,755.8 331.3,755 331.3,754 331.3,753.1 329.3,749.6 326.8,746.3 320.3,737.6 300,711.4 299,710.5 298.5,710 295.9,706.7 293.3,703.2 290.7,699.6 287.2,695.3 285.6,693.5 281.6,689.1 271.8,668.7 270.9,662.7 270.5,660.1 268.9,651.7 267.4,644.1 262.8,621.3 261.7,614.7 260.1,602.9 256.6,575.4 252.2,564.9 244.2,564.9 242.4,564.9 240.5,564.2 239.9,563.3 239.4,562.4 237.2,561.7 235.1,561.7 233,561.7 230.8,560.9 230.2,560 229.7,559.1 228,558.4 226.5,558.4 221.1,558.3 210.6,546.2 206.8,535.8 205.6,532.7 204.1,521.7 203.4,511.5 202,491.3 200.9,483.3 198.7,478.4 191.4,462 190.5,453.8 194.9,444.9 199.9,435.1 200.3,433.9 200.3,431.5 200.3,428.1 205,428.4 211.4,432.3 218.5,436.7 223.3,441.6 228.7,450.2 234.4,459.3 237.4,462.2 239,460.4 243.9,455 245.6,417.5 241.8,399.1 240.2,391.4 239.1,389.3 236.5,388.9 234.7,388.7 232.2,389.6 231.1,390.9 227.1,395.7 223.5,393.9 221.5,386.3 217.5,370.3 220.1,287.8 224.8,282.7 225.5,281.9 226.2,279.8 226.2,278.1 226.2,276.4 227.1,275.4 228.2,275.8 229.6,276.3 230.3,281.1 230.4,291.7 230.6,310 232.4,331.6 234.2,336 234.9,337.8 236.3,343.4 237.2,348.5 238.2,353.7 241.1,362.4 243.7,368 262.6,407.9 263.4,410.2 263.3,422.7 263.2,429.3 262.5,438 261.7,442 259,455.7 258.3,459 257,462.2 254.4,468.8 252.2,477.1 249.4,490.8 246.7,504.3 246.7,505.5 249.5,520.7 252.5,537.2 254.7,545.9 257.1,550.7 257.9,552.3 258.5,554.6 258.5,555.9 258.5,558.9 263.5,561.7 268.7,561.7 274.8,561.7 280.5,556.1 283.4,547.2 286.7,537.2 287.1,507.3 284,506.2 282.5,505.7 282.8,504.5 285,502 287.3,499.5 290,498.6 294.8,498.6 300.5,498.6 302.9,499.8 310.1,505.9 314.8,509.9 320.4,513.6 322.5,514.1 333,516.8 336.7,536.1 328.7,546.6 323.5,553.5 309.4,561.6 302.7,561.6 299.8,561.7 297.1,562.4 296.5,563.3 296,564.2 294.1,564.9 292.3,564.9 288.2,564.9 286.9,568.5 289.3,573.2 292.6,579.2 297.4,582.4 309.4,586.2 320.2,589.7 326.2,594 326.4,598.5 326.4,599.6 327,600.5 327.6,600.5 328.3,600.5 330.2,603.2 331.8,606.5 342.3,628.5 345.2,628.9 351.5,609.4 353.2,604 357,595.7 359.9,590.9 362.8,586 365.2,581.4 365.2,580.7 365.2,579.9 367.4,576.9 370.1,574.1 372.7,571.3 374.9,568.5 374.9,567.9 374.9,565.9 391.6,558.4 395.8,558.4 400.8,558.5 403,559.8 405.3,564.3 407.4,568.3 406.4,569.7 401.7,569.7 399.8,569.7 394.8,572.8 390.6,576.4 381.9,584 376,595.3 374.2,607.8 372.6,618.8 370.1,624.1 362.2,633.6 358.5,638 353.7,645.5 351.4,650.2 349.1,654.9 346.9,658.7 346.5,658.7 346.2,658.7 343.8,655.6 341.4,651.9 337,645.2 335.1,642.7 329.2,635.7 327.7,633.8 326.4,631.9 326.4,631.3 326.4,630.7 325.1,628.8 323.6,627.1 322,625.3 317.8,619.9 314.3,615 303.6,600.4 298.3,594.4 290.7,588.7 284.3,583.9 277.9,582.9 277.9,586.7 277.9,588.1 278.6,589.2 279.5,589.2 280.4,589.2 281.1,589.9 281.1,590.7 281.1,591.6 283.7,596.3 286.8,601.2 289.9,606 292.5,610.7 292.5,611.6 292.5,615.1 305.2,636.6 319.4,656.9 327.6,668.8 336,682.1 338,686.5 342.4,696.3 345.2,696.1 350.9,685.6 356.2,675.7 382.7,645.8 386.1,645.8 387.5,645.8 389.7,648.1 390.9,651 395.1,660.6 408.6,680.4 415.6,687.3 419.5,691.1 427.3,696.5 433.1,699.5 440.8,703.4 443.6,705.7 443.6,708 443.6,711.7 442,711.8 404.8,710.4 386.4,709.7 383.8,710 383.3,712.3 382.6,715.9 397,727.1 405.8,729.7 409.7,730.9 414.6,732.7 416.8,733.7 422.4,736.3 479.2,736.2 481.9,733.5 483,732.4 485.4,731.5 487.2,731.5 492.4,731.4 502.8,725.8 510.4,719 521.1,709.4 518.7,708.6 485,710.5 469.7,711.4 456.5,711.7 455.6,711.2 452.8,709.5 454.1,704.6 457.8,702.9 473,695.8 477.4,692.9 483.8,686.1 491.2,678.1 502.6,661.5 502.6,658.7 502.6,657.8 503.2,657.1 503.9,657.1 504.6,657.1 506,654.9 507,652.2 510.3,643.5 513.3,644.3 525.4,657.3 535.4,667.9 545.1,680.7 550.5,690.3 551.5,692 553.2,693.5 554.4,693.5 556.4,693.5 561.8,685.4 566.3,675.7 567.5,673 570.1,669 572.1,666.8 576.9,661.4 598.3,628.6 601.6,621.5 603,618.4 605.4,613.2 606.8,609.9 608.2,606.7 611.8,600.3 615,595.6 621.5,585.9 621.8,584.3 617.2,584.3 610.2,584.3 597.2,596.1 584.2,614.3 582.5,616.8 576.5,624.9 570.9,632.3 565.4,639.7 560.8,646.3 560.8,647 560.8,647.7 558.8,650.7 556.3,653.7 556.3,653.7 551.8,659.1 551.8,659.1 551.8,659.1 547,649.9 547,649.9 544.4,644.8 541.1,639.4 539.7,638 532.8,630.3 526.2,619.2 525.1,613 521.1,591.5 518.8,586.2 510.3,578.4 503.5,572.2 499,569.7 494.6,569.7 490.2,569.7 490.4,566.3 495,561.9 499.9,557.4 505,557.5 514.8,562.4 525.1,567.5 532.1,577.6 547.9,610.2 548.5,611.6 549.6,615 550.2,617.9 552.1,626.7 556.9,626.6 560.7,617.8 565,608 577.8,589.2 580.2,589.2 583.5,589.1 596.1,584.2 602.3,580.4 607,577.6 610.9,571.9 610.9,568.1 610.9,566 600.1,561.7 594.9,561.7 590.5,561.7 574.5,553 569.4,547.8 567.7,546.1 566.4,541.6 566,535.8 565.1,523.5 568.1,517.8 578.1,513 582.4,510.9 588.2,506.8 591.2,503.9 595.5,499.5 597.7,498.6 603.5,498.6 612.7,498.6 615.5,501.6 612.8,508.9 610.4,515.6 610.4,526.9 612.9,540.3 614.3,548.3 616,552.1 619.9,556.2 625,561.7 631.7,563.3 636.4,560.3 638.8,558.8 644.9,543 644.9,538.1 644.9,536.3 645.5,534.1 646.2,533.3 647,532.4 648.5,525.5 649.5,518 651.1,506.6 651,502.1 649,492.1 645.2,472.5 644.7,470.4 643.3,467 642.5,465.3 640.7,458.3 639.2,451.7 637.7,445 635.9,437.3 635,434.6 632.9,427.3 633.3,417.9 636,409.9 638.3,403.3 651.2,374.8 654.6,368.8 655.5,367.3 656.2,364.9 656.2,363.5 656.2,362.2 656.8,361.1 657.5,361.1 661.3,361.1 667.5,320.1 667.5,295.5 667.5,279.9 668,275.3 669.5,275.8 670.6,276.1 672.2,278.6 673,281.2 673.8,283.8 675,287.3 675.7,289.1 676.3,290.9 677.7,303.3 678.7,316.7 680.6,342.3 678.5,387.2 675.2,391.4 673,394.1 669.4,394 666.5,391 662.8,387.3 659.6,388.1 658.5,393 658,395.5 656.9,399.6 656.1,402.2 653.9,408.9 654.2,443.9 656.5,452.4 657.6,456.4 659.4,460 660.5,460.5 661.8,460.9 664.8,457.8 668,452.8 675,442 685.8,431.3 691.1,429.9 696.3,428.6 699.8,431.3 699.8,436.5 699.8,438.6 700.4,440.3 701.1,440.3 702.8,440.3 706.3,452.3 706.3,458 706.3,460.7 705.5,464.9 704.5,467.4 703.5,469.9 702.1,473.3 701.4,475.1 700.8,476.9 699.4,480.5 698.3,483.1 697.3,485.7 696.1,495.1 695.6,504.1 693.8,539.1 688.8,550.3 670.9,559 667.9,560.5 664.1,561.7 662.5,561.7 660.9,561.7 659.2,562.3 658.7,563.1 658.3,563.8 655.7,564.9 653.1,565.4 648,566.4 643.3,573.2 643.3,579.3 643.3,581 642.5,582.9 641.6,583.5 640.7,584 640,586.6 640,589.1 640,591.7 639.3,597.3 638.5,601.6 637.6,605.9 635.8,617 634.4,626.4 632.9,635.7 631.1,645.6 630.2,648.3 629.4,651 628.7,654.8 628.7,656.7 628.7,660.2 628.4,661.2 622.9,674.9 620.4,681.1 607.5,701.5 604.5,704 603.9,704.4 601.3,707.7 598.7,711.3 596.1,714.8 592,719.9 589.5,722.6 587.1,725.3 585.1,727.9 585.1,728.5 585.1,729.1 584.1,730.6 582.9,731.8 578.2,736.5 562.9,759 554.6,773.5 549.8,782 543.3,793.2 540.3,798.5 532.5,812.1 517.8,824.9 507.1,827.5 502.5,828.6 500.8,826.4 504.9,824.8 509.1,823.2 510.7,813.1 508.2,804.6 506.5,798.8 503.4,794.4 495.4,786.6 484.1,775.7 482.4,771 487.9,765.9 489.6,764.3 492.9,761.3 495.2,759.2 497.5,757.1 499.4,754.1 499.4,752.4 499.4,750.8 500.1,749 501,748.5 501.9,747.9 502.6,744.2 502.6,740.2 502.6,733.5 502.3,732.9 499,733.4 496.9,733.7 495.1,735.3 494.8,737.2 494,741.6 483.8,755.2 480.4,756.5 476.8,757.9 473.5,753.4 473.5,746.9 473.5,741.2 471,738 466.8,738 463.1,738 460.3,748.1 460,762.5 459.8,772.5 460.1,773.5 464.6,777.5 476.2,787.7 485,797.1 487.3,801.6 491.3,809.7 490.4,817.9 484.7,824.4 481.9,827.6 479,830.2 478.2,830.2 477.4,830.2 476.7,826.9 476.7,822.9 476.7,818.9 476.2,815.6 475.5,815.6 474.8,815.6 473.6,814 472.7,812 470.8,807.7 452.9,793 449.6,793 446.8,793 432,803.5 427.3,808.8 423.1,813.5 420.2,822.5 421.3,826.9 422.3,830.6 422.3,830.6 417.6,828.3 Z M442,680.9 C436.3,676.7 432.5,672.4 429.6,666.8 428.4,664.6 427.1,662.4 426.6,661.9 426.2,661.5 424.6,658.4 423,655.1 421.5,651.8 418.3,646.9 415.9,644.2 412.1,639.9 410.5,639.3 403,639.3 395.3,639.3 393.8,638.7 388.7,633.6 383.8,628.7 383,626.8 383,620.5 383,613.4 390,597.2 393.1,597.2 393.8,597.2 394.3,596.5 394.3,595.6 394.3,593.1 402.2,581.1 403.8,581.1 404.6,581.1 406.4,583.8 407.9,587.1 412.9,598.9 418.9,607.9 428,617 436.8,625.9 441.9,628.4 443.2,624.5 443.5,623.4 446.3,622.6 449.3,622.6 452.3,622.6 455,623.4 455.4,624.5 457.9,631.9 476.5,614.1 486.2,594.9 490.1,587.3 493.7,581.1 494.3,581.1 495.7,581.1 501,587.1 501,588.7 501,589.3 504,594.3 507.7,600 521.6,621.4 515.5,639.3 494.1,639.3 486.4,639.3 481.3,643.3 476.7,653 469.5,668.3 455.1,684.7 449.1,684.5 447.9,684.5 444.7,682.9 442,680.9 Z M445.4,601.3 C444,599.1 442.8,596.6 442.8,595.7 442.8,594.8 442.1,594 441.2,594 440.3,594 439.6,593.1 439.6,592 439.6,590.8 436.3,586.1 432.2,581.5 432.2,581.5 424.9,573.1 424.9,573.1 424.9,573.1 429.4,570.8 429.4,570.8 431.9,569.5 435.9,566.2 438.4,563.5 442.3,559 442.8,557.2 442.8,547.3 442.8,537.5 442.3,535.7 438.5,532 436.2,529.6 433.7,527.7 432.9,527.7 429.7,527.7 431.9,523.6 437.9,518.5 450,508.1 450.1,491.7 438,486.9 435.1,485.7 434.6,485 436.3,484.4 437.6,483.9 440.5,481.8 442.7,479.7 446.3,476.4 446.8,474.6 446.7,465.6 446.7,460 445.7,452.9 444.5,449.9 440.1,438.1 435.9,430.9 432.1,428.9 430,427.8 428.3,426.3 428.3,425.6 428.3,424.9 431.2,421.6 434.9,418.2 438.5,414.8 442.5,409.6 443.8,406.6 446.4,400.4 447,366.9 444.6,360.8 443.8,358.7 442.2,353.8 441.1,349.8 438.6,340.5 433.1,328.8 429.9,325.5 429.4,325.1 426.2,318.9 422.8,311.8 407,279 403.4,262.8 403.4,223.6 403.4,187.3 407.9,165.9 421.4,138.3 429.5,122 434.3,116.3 439.4,117.1 439.4,117.1 442.8,117.7 442.8,117.7 442.8,117.7 439.1,124.9 439.1,124.9 431.6,140 427.5,161.2 427.5,185.6 427.4,199.5 428,202.9 431.4,209.9 436.4,220 445.6,230.1 449.7,230.1 454.2,230.1 463.1,220.1 467.7,210.1 473,198.4 474.5,180.4 471.2,166.4 469.8,160.4 468.7,152.7 468.7,149.2 468.7,145.8 467.9,142.5 467.1,141.9 466.2,141.4 465.4,138.8 465.4,136.2 465.4,133.6 464.7,131.4 463.8,131.4 462.9,131.4 462.2,130.1 462.1,128.6 462.1,127 461,124.3 459.7,122.6 456.5,118.4 456.7,116.9 460.6,116.9 464.6,116.9 471.7,126.4 478.5,140.9 491,167.5 493.1,178.4 494,219.5 494.9,259.6 492.5,274.9 481.6,298.8 479.2,304.2 475.8,311.4 474.2,315 472.6,318.6 468.4,326.1 464.9,331.7 461.4,337.4 457.9,344.7 457.2,347.9 456.5,351.2 455.1,357.3 454.1,361.5 453,365.8 452.5,377.3 452.8,387.4 453.3,403.6 453.7,406.2 457.4,411.6 459.6,414.9 463,418.4 464.9,419.5 470.6,422.5 470.4,424.8 463.8,431.7 456.4,439.4 452.5,450.2 452.2,463.6 451.8,476.5 453.1,479.9 459.4,482.9 464.1,485.2 464.3,485.6 461.4,486.6 454.4,489.1 452.5,492.3 452.5,501.7 452.5,511.1 454.9,515.4 464.2,522 464.2,522 467.9,524.7 467.9,524.7 467.9,524.7 462.9,529 462.9,529 457.5,533.7 454.1,541.4 454.1,549.1 454.1,556 460.1,565.8 466.5,569.2 471.6,572 473.5,575.3 470.5,576.5 468.8,577.2 453.5,598.7 452.1,602.5 450.6,606.4 448.5,606 445.4,601.3 Z M350.3,553.8 C342.4,544.7 340.1,531.4 345.2,523.6 347.7,519.8 355.8,514.8 359.4,514.8 360.4,514.8 368.4,511.1 377.2,506.7 391.6,499.3 394.1,498.6 404,498.6 421.9,498.6 422.7,504.1 407.2,519.6 398.9,527.8 390.9,533.9 383.8,537.4 381.1,538.7 378.6,540.2 378.1,540.6 377.7,541.1 374.6,542.9 371.2,544.6 367.8,546.3 362.5,550 359.5,552.9 359.5,552.9 354.1,558 354.1,558 354.1,558 350.3,553.8 350.3,553.8 Z M539.5,553.8 C537.3,550.7 524.3,542.1 513.4,536.5 505.3,532.4 490.2,519.2 484.2,511.1 477.5,502 479.4,499.5 493.9,498.9 503.5,498.4 506.3,499 513.9,502.9 518.8,505.4 523.2,507.8 523.6,508.3 525.3,509.9 536.7,514.8 539.1,514.8 541.7,514.8 547.1,517.5 551.5,521.1 553.7,522.8 554.3,525.8 554.3,534 554.3,542.8 553.6,545.8 550.2,550.8 545.7,557.5 542.7,558.3 539.5,553.8 Z M333.3,501.9 C327.3,498.2 323.2,489.6 323.2,480.6 323.2,475.9 322.5,474.3 320.6,474.3 318.2,474.3 308.9,478.8 307,480.9 306.6,481.4 303.6,483.7 300.4,486.1 295.5,489.8 293,490.5 284,490.5 274.3,490.5 273.2,490.1 270.6,486.1 269,483.8 267.4,478.7 267,474.9 266,466 272.3,452.3 280.4,445.7 295.2,433.7 299.4,429.6 302.3,423.9 305.9,416.9 308.7,416.3 316.3,420.9 322.6,424.8 328.9,425.1 330.2,421.8 331.5,418.5 327.5,409.6 322.9,405.3 316.7,399.6 306.7,396.3 301.5,398.2 295.2,400.6 287.8,400.3 285,397.6 281.9,394.4 281.6,383.9 284.5,382 292,377.1 310,380.7 317.3,388.4 321.9,393.4 331.5,410.6 335.3,420.9 339.3,431.6 341.3,435.5 343,435.5 343.8,435.5 346.7,437.3 349.6,439.4 358.7,446.4 376,454.9 381,454.9 385.6,454.9 388.2,453 391.8,446.9 392.7,445.3 394.8,442.1 396.4,439.9 398.6,436.8 399,434.9 397.8,432.8 396.9,431.2 386.7,420.8 375.1,409.8 375.1,409.8 353.9,389.8 353.9,389.8 353.9,389.8 353.9,379.3 353.9,379.3 353.9,373.5 352.7,363.8 351.2,357.7 348.9,348.2 348.8,345.9 350.7,342.5 351.9,340.3 353.7,338.4 354.7,338.4 355.7,338.4 358.1,336.8 360.1,334.7 366.6,327.8 363.9,320.7 353.3,316.6 346.9,314.2 345.7,314.1 341.6,316.3 336,319.2 331.4,324.4 327.5,332 321.3,344.4 318.1,348.2 314,348 312.4,348 302.3,343.4 291.7,337.9 274.3,328.9 272.2,327.4 271.7,323.2 271.4,320.6 271.9,317 272.8,315.1 277.3,305.4 278.6,299.3 278.7,287.3 278.7,274.9 278.4,273.7 273.7,267.9 264.3,256 262.2,247.7 265.1,233.6 266.8,225.1 270.8,214.2 273,212.3 273.5,211.8 276,208.6 278.6,205 285.2,196 292,189.6 295,189.6 296.4,189.6 297.2,190.2 296.9,190.9 294,197.1 292.5,201.5 290.8,209.4 288.1,221.8 291.1,232.4 298.9,237.8 311.8,246.6 323.8,239.8 332.5,218.8 339.8,201 344.2,193.7 354.4,182.4 361,175.1 364.4,168.2 363.1,164.8 362.6,163.5 359.1,162 355.2,161.3 348.1,160.2 342.5,156.6 342.6,153.4 342.7,151.6 359.1,139.5 361.6,139.5 362.3,139.5 364.4,138.2 366.1,136.7 367.8,135.1 372.5,132.2 376.5,130.2 380.5,128.2 385.6,125.6 387.8,124.3 396.6,119.5 404.4,116.9 409.7,116.9 409.7,116.9 415.3,116.9 415.3,116.9 415.3,116.9 409.7,124.3 409.7,124.3 406.5,128.3 404,133.1 404,134.8 404,136.5 403.4,137.9 402.6,137.9 401.8,137.9 400.8,139.9 400.3,142.3 399.8,144.8 398.2,151.5 396.8,157.3 394.3,166.8 392.1,181.2 390,201 389.6,205 388.7,209.7 387.9,211.5 387.2,213.3 385.6,218 384.4,222 380.1,236.2 364.9,251 348.6,256.7 344,258.3 339.4,260.2 338.5,260.8 337.6,261.5 334.7,262.4 332.1,262.9 329.4,263.3 322.2,265.1 316,266.8 304.9,269.8 304.7,269.9 300.3,278.7 297.8,283.5 295.8,288.7 295.8,290.2 295.7,291.7 295,293.4 294.1,294 293.2,294.5 292.5,299.6 292.5,305.3 292.5,314.5 292.9,315.9 296.8,319 302.2,323.2 308.4,324.8 311.6,322.8 313,321.9 315.6,317.6 317.4,313.2 319.2,308.9 321.2,305 321.9,304.8 322.6,304.5 323.2,303.2 323.2,302 323.2,300.8 325.1,298.4 327.4,296.5 331.2,293.6 333.9,293.2 349.8,293.2 349.8,293.2 368,293.2 368,293.2 368,293.2 374.7,302.7 374.7,302.7 378.4,308 381.4,312.8 381.4,313.3 381.4,314.6 388.8,324.7 393.2,329.6 401.2,338.3 401.7,344.8 398.2,391.8 397,407.5 398.9,413.3 408.8,424.1 419.7,436 419.5,438.8 407.2,451.5 401.9,457.1 397.5,462.3 397.5,463.2 397.5,467.1 401.2,471 408,474.3 414.1,477.2 415.3,478.6 415.3,482.3 415.3,485.5 414.2,487.3 411.2,488.6 402.5,492.6 393.9,490.2 383,480.8 374.5,473.5 372.3,474.3 370.9,484.8 369.7,494.9 366,499.4 356.2,502.8 347.3,505.9 339.4,505.6 333.3,501.9 Z M545.5,503.4 C544.9,502.5 542.8,501.8 540.8,501.8 534.7,501.8 529.5,494.7 528.5,485.1 527.4,474.5 523.9,473.5 514.7,481.2 503.8,490.3 495.8,492.5 487.3,488.6 480.2,485.4 482.8,476.2 491.6,473.4 502.4,470 502.1,462.3 490.5,450.2 479.2,438.4 479.1,435.6 489.7,424.1 494.2,419.2 498.3,413.5 498.8,411.4 499.4,409.2 499.4,395.2 498.8,380.3 497.4,344.3 498.3,337.1 505.2,329.2 513.5,319.9 513.9,319.3 513.9,317.5 513.9,316.6 514.5,315.8 515.3,315.8 516,315.8 518.2,312.6 520.1,308.8 522,304.9 525.4,299.8 527.6,297.5 531.4,293.3 532.2,293.2 549.1,293.2 562.3,293.2 567.4,293.8 570.2,295.7 573.8,298.2 580.2,309.7 580.2,313.7 580.2,314.8 580.8,315.8 581.4,315.8 582.1,315.8 583.4,317.4 584.3,319.4 588.9,330 607.7,319.3 607.7,306.1 607.7,302.7 607,299.4 606.1,298.8 605.2,298.3 604.5,296.6 604.5,295.2 604.5,293.8 601.8,287.3 598.6,280.7 594.5,272.5 591.9,268.9 589.8,268.9 588.2,268.9 585.2,268.2 583.1,267.4 581.1,266.7 576.1,265.1 572.1,264 554,259 543.9,255.3 541.4,252.7 541,252.3 538.8,251 536.6,249.8 526.4,244.5 519.1,234.9 512.2,217.9 510.2,213.2 507.8,198.6 506.6,184.8 505.6,173.4 504.9,169.7 500.7,153.3 497,139 491,124.8 487.3,121.8 480.9,116.4 487.6,115.3 500.3,119.5 504.7,121 509,122.7 509.9,123.4 513.1,125.8 529.3,134.8 532.1,135.7 533.7,136.2 534.9,137.3 534.9,138.1 534.9,138.9 535.7,139.5 536.6,139.5 537.6,139.5 542.3,142.5 547.2,146.1 555.7,152.3 556,152.9 553.9,156.2 552.4,158.3 548.7,160.2 543.7,161.3 531.5,163.9 532.3,169.3 547.7,186.9 556.8,197.2 559.5,201.8 563.3,213.1 571.3,236.5 584.1,246.2 597.8,239.1 600.3,237.8 603.6,234.9 605,232.6 608.8,226.9 608.6,209 604.6,198.1 602,191.1 601.9,189.6 603.8,189.6 606.3,189.6 611.9,195 619.8,204.9 629,216.5 632.1,223.6 633.1,235 634.4,251.2 632.7,259.1 626.4,266.5 622.9,270.6 620.5,275.3 619.9,279.6 618.8,286.9 621,304 623.8,309.1 624.7,310.9 625.5,315.9 625.5,320.3 625.5,320.3 625.5,328.2 625.5,328.2 625.5,328.2 606,338.2 606,338.2 595.3,343.7 585.2,348.2 583.5,348.2 580.2,348.2 576,342.9 571.6,333.3 570,330 566.4,324.7 563.4,321.5 559.1,317 556.8,315.8 552.1,315.8 537.6,315.8 529.9,326.7 538.7,334.9 540.7,336.9 543,338.4 543.7,338.4 547.5,338.4 549.8,343.7 548.8,350.2 548.3,354 547.1,363.1 546.3,370.5 545.5,378 544.3,385.6 543.7,387.5 543.1,389.4 533.2,400.1 521.8,411.2 507.2,425.4 501,432.5 501,435.1 501,437.1 503.6,442.4 506.8,446.8 511.8,453.8 513.4,454.9 518.2,454.9 521.3,454.9 526.5,453.1 530.1,450.9 533.6,448.6 536.9,446.8 537.4,446.8 538.6,446.8 551.2,438.5 555.4,434.9 557.4,433.2 559.8,429.6 560.9,426.8 562.9,421.5 567.6,410.6 571.6,402.1 576.3,391.9 584.8,383.9 593.5,381.3 604.5,378.1 608,378.2 613.1,382.2 618.4,386.4 618.6,391.8 613.6,396.4 609.5,400.3 604.3,400.8 596.8,398.2 586.5,394.6 568.9,407.8 568.9,419.1 568.9,423.7 569.4,424.2 573.7,424.2 576.4,424.2 578.6,423.6 578.6,423 578.6,421.2 586.7,417.7 590.7,417.7 593.1,417.7 594.7,419.3 596.1,423 598.5,429.5 601.8,433.4 610.1,439.6 622,448.5 624.2,450.8 628.1,458.8 631.8,466.5 633.6,482.4 630.7,482.4 630,482.4 628.8,484 627.9,486 626.5,489.2 624.9,489.7 615.6,490.2 605.1,490.6 604.7,490.5 593,482.5 586.4,478 579.8,474.3 578.4,474.3 576.5,474.3 575.6,476.4 574.8,482.4 573.6,493.1 570.8,498.5 564.9,502 559.5,505.1 547,506 545.5,503.4 Z M224.2,430.5 C219,425.1 215.3,422.6 212.5,422.6 210.3,422.6 208.4,421.8 208.4,420.9 208.4,420 207.3,419.3 206,419.3 200.4,419.3 191.5,412.6 188.2,405.9 185,399.5 185,383.2 188.1,380.6 190,379 191.4,379.6 195.3,384.1 197.9,387.1 202.9,391 206.3,392.7 209.7,394.5 212.8,396.2 213.3,396.7 213.7,397.1 216.2,398.6 218.9,399.9 221.6,401.2 225.8,404.4 228.2,407 232.3,411.5 232.7,412.8 232.7,425.3 232.7,432.7 232.5,438.7 232.2,438.6 232,438.6 228.4,434.9 224.2,430.5 Z M665.3,437.7 C663.7,436 664.1,425.2 666.2,416.1 667.6,409.9 669.3,406.9 673.1,404.3 675.8,402.4 678.4,400.5 678.8,400 679.3,399.5 683.4,397.1 688.1,394.6 692.8,392.2 699.3,387.6 702.6,384.5 710.3,377.3 712,379 711.7,393.4 711.5,406.6 707.9,412.9 698.5,417 695.2,418.4 691.3,420.3 689.8,421.1 688.2,421.9 686,422.6 684.9,422.6 681.8,422.6 671.1,431.8 669.9,435.5 668.9,438.8 667.3,439.6 665.3,437.7 Z M232.1,254.8 C231.5,254.3 231,249.7 231,244.8 231,239.8 229.9,233.7 228.6,231.1 225.5,225.1 225.5,218 228.8,213 231.3,209.2 231.2,208.7 224.9,198.9 221.3,193.4 216.8,185.2 214.8,180.7 212.9,176.3 210.6,171.1 209.7,169.2 207.2,164 210.3,136.6 214.5,126.4 217.4,119.3 224.6,119.4 224.6,126.6 224.6,129.1 234,141.4 239.1,145.5 240.4,146.6 243.5,147.5 245.9,147.5 248.3,147.6 250.7,148.3 251.2,149.2 251.8,150.1 253.5,150.8 255,150.9 258.4,150.9 262.2,156.2 264.9,164.2 267.2,171.3 268.6,171.6 275.3,166.4 285.5,158.7 292.5,159.2 292.4,167.6 292.4,171.8 289.7,175.4 275.8,189.6 266.6,199 256.5,210.3 253.4,214.7 246.7,224.1 237.9,242.1 236.5,249.4 235.4,254.6 233.8,256.6 232.1,254.8 Z M663.9,254.9 C663.5,254.2 662.2,250.1 661.1,245.8 659.9,241.6 658.3,237.7 657.6,237.2 656.8,236.7 656.2,235.3 656.2,234 656.2,232 649.1,219.7 646.5,217.1 646,216.7 642.6,212.2 638.8,207.1 635,202 630.2,196.2 628.1,194.2 626,192.1 619.8,186.2 614.4,181 603.7,170.8 601.8,165.3 607.8,162.1 611.7,160 616.5,161.3 623.2,166.4 629.7,171.4 631.6,171.2 633,165.8 635.3,156 644.7,147.6 653.4,147.6 659.8,147.6 672.5,133.9 674.8,124.4 675.4,122 676.5,120.1 677.3,120.1 679.7,120.1 683.7,125.1 684.6,129.5 685.1,131.9 686.2,135.5 687,137.6 687.8,139.6 688.5,147.9 688.5,156 688.5,169.9 688.2,171.4 682,183.8 678.4,191 673.7,199.3 671.6,202.3 667.8,207.5 667.8,207.7 670.4,214.8 672.8,221.4 672.8,222.4 670.3,229.6 668.7,233.9 667.5,240.6 667.5,244.6 667.5,251.8 665.4,257.7 663.9,254.9 Z M303.4,227.1 C301.8,224.4 300.5,219.8 300.5,216.8 300.5,211.3 304,198.8 307.4,191.7 308.7,189 308.6,187.5 306.9,185.4 303.8,181.7 303.6,135.8 306.6,132.8 307.7,131.7 308.6,129.8 308.6,128.5 308.6,126.5 312.3,121.7 313.9,121.7 314.3,121.7 316.1,124.8 317.9,128.6 319.8,132.4 324.7,142.5 328.8,151.1 333.1,160 338.1,167.9 340.3,169.4 345.8,173 345.2,175.9 337.2,184.8 331,191.8 323.1,205.4 319.9,214.7 314.3,230.9 308.3,235.4 303.4,227.1 Z M583.9,228.1 C582.9,226.1 581.2,221.9 580.1,218.8 577.9,212.5 570.5,196.2 568.6,193.7 568,192.8 564.5,188.7 560.9,184.6 557.3,180.5 554.3,176.2 554.3,175.1 554.3,174 556.8,170.7 559.7,167.7 562.7,164.8 566.5,158.8 568.1,154.6 569.7,150.3 572.2,145 573.7,142.7 575.3,140.5 577,136.7 577.6,134.3 578.1,131.9 580.3,128 582.4,125.5 582.4,125.5 586.2,121.1 586.2,121.1 586.2,121.1 588.7,126.7 588.7,126.7 594,138.9 595,145.2 594.2,162.1 593.7,171.5 592.9,182.7 592.3,187 591.6,192 591.8,195.4 593,196.6 594,197.6 594.8,200 594.8,202 594.8,204 595.5,206.1 596.4,206.6 598.9,208.2 598.3,221.6 595.5,226.9 592.5,232.8 586.4,233.4 583.9,228.1 Z M337.7,131.7 C337.7,128.9 345.9,123.7 362.4,115.8 365.7,114.2 368.4,112.3 368.4,111.6 368.4,110.9 369.4,110.4 370.5,110.4 371.6,110.4 377.2,108.5 383,106.2 402.3,98.4 414.9,94.2 419,94.2 425.2,94.2 430.8,89.4 435.5,80.2 438.1,75 440.7,70.4 441.3,70 441.8,69.5 444.2,65 446.5,60 449.7,53.3 450.9,47.8 451.3,39.4 451.5,33.1 452.2,27.9 452.8,27.9 455.7,27.9 463.6,40.4 465.9,48.6 470.5,65.8 471.9,73.2 471.9,81 471.9,88.7 475.1,94.2 479.5,94.2 481.3,94.2 496.4,98.6 501.8,100.7 503.6,101.4 509.8,103.8 515.5,106.2 521.3,108.5 526.9,110.4 527.9,110.4 529,110.4 530.1,110.9 530.4,111.6 530.7,112.3 533.8,114.3 537.4,116.2 555.5,125.7 560.8,129 560.8,131 560.8,133.1 554,132.4 550.3,129.9 549.4,129.2 545,127.4 540.6,125.8 536.2,124.2 531.8,122.3 531,121.5 530.1,120.7 527.9,120.1 526,120.1 524.1,120.1 522,119.6 521.4,119 519.7,117.3 502.3,112.1 498.3,112 496.3,112 494.3,111.3 493.7,110.4 493.2,109.5 490.3,108.8 487.3,108.8 484.3,108.8 481.4,108.1 480.9,107.4 480.5,106.6 477.3,105.6 474,105 470.6,104.5 463.4,103.3 457.9,102.4 449.5,100.9 445.5,101.2 432.1,104 423.3,105.9 413.9,107.7 411.3,108.2 408.6,108.6 405,109.6 403.2,110.3 401.4,111.1 395.4,112.9 389.8,114.5 384.2,116.1 379.2,118 378.8,118.8 378.3,119.5 376.7,120.1 375.1,120.1 372.6,120.1 358.3,125.2 348.2,129.8 342.3,132.4 337.7,133.3 337.7,131.7 Z " />
</svg>
