<?xml version="1.0" encoding="utf-8"?>
<!-- Generator: Adobe Illustrator 16.0.0, SVG Export Plug-In . SVG Version: 6.00 Build 0)  -->
<!DOCTYPE svg PUBLIC "-//W3C//DTD SVG 1.1//EN" "http://www.w3.org/Graphics/SVG/1.1/DTD/svg11.dtd" [
	<!ENTITY ns_flows "http://ns.adobe.com/Flows/1.0/">
	<!ENTITY ns_extend "http://ns.adobe.com/Extensibility/1.0/">
	<!ENTITY ns_ai "http://ns.adobe.com/AdobeIllustrator/10.0/">
	<!ENTITY ns_graphs "http://ns.adobe.com/Graphs/1.0/">
]>
<svg version="1.1" id="Layer_1" xmlns:x="&ns_extend;" xmlns:i="&ns_ai;" xmlns:graph="&ns_graphs;"
	 xmlns="http://www.w3.org/2000/svg" xmlns:xlink="http://www.w3.org/1999/xlink" xmlns:a="http://ns.adobe.com/AdobeSVGViewerExtensions/3.0/"
	 x="0px" y="0px" width="864px" height="864px" viewBox="0 0 864 864" enable-background="new 0 0 864 864" xml:space="preserve">
<g>
	<path fill-rule="evenodd" clip-rule="evenodd" fill="#939598" d="M719.594,428.378c-4.993,5.774-9.157,11.67-9.635,18.393
		c-1.803-0.801-3.706-1.678-5.635-2.496c-2.626-1.113-5.369-1.995-7.88-3.322c-2.213-1.169-4.178-2.812-6.252-4.246
		c-0.382,0.28-0.765,0.56-1.148,0.839c0.581,1.67,0.718,3.759,1.825,4.935c3.843,4.078,7.89,7.996,12.157,11.624
		c1.253,1.065,3.496,0.964,6.084,1.591c-0.116-0.723,0.076-0.155,0.04,0.397c-0.056,0.874-0.432,1.749-0.374,2.604
		c0.092,1.369-0.063,3.249,0.739,3.996c5.555,5.169,9.52,11.396,12.332,18.313c0.706,1.738,0.593,4.469-0.317,6.079
		c-2.694,4.763-6.296,9.018-8.937,13.805c-2.689,4.874-4.885,10.059-6.876,15.27c-1.661,4.344-1.964,9.344-4.199,13.303
		c-4.283,7.583-3.909,16.042-5.749,24.056c-1.307,5.689-1.797,11.565-2.863,18.801c-9.823-14.639-20.028-28.011-34.098-38.984
		c2.476-2.533,4.79-5.678,7.812-7.833c6.187-4.414,8.863-11.236,12.715-17.245c0.542-0.846-0.143-2.554-0.412-3.83
		c-1.021-4.833-9.38-7.28-13.742-5.817c-1.921,0.644-4.002,0.826-5.895,1.531c-2.128,0.793-5.052,0.392-5.079,4.285
		c-0.081,11.534-0.48,23.066-0.848,34.598c-0.122,3.838-0.966,7.696-0.71,11.494c0.594,8.834,1.331,17.685,2.606,26.442
		c1.807,12.426,3.777,24.852,6.396,37.126c1.65,7.738,4.575,15.208,7.025,22.768c0.322,0.991,1.096,2.354,1.882,2.526
		c0.736,0.162,2.011-0.851,2.621-1.666c1.388-1.851,2.386-3.992,3.77-5.845c3.979-5.328,8.122-10.535,12.094-15.868
		c1.464-1.964,2.795-4.065,3.899-6.25c2.408-4.767,4.715-9.588,6.909-14.456c2.616-5.806,5.259-11.612,7.54-17.554
		c1.968-5.128,3.438-10.445,5.142-15.675c1.887-5.799,4.105-11.513,5.59-17.411c1.354-5.388,1.927-10.974,2.839-16.472
		c1.485-8.965,4.056-17.907,4.241-26.898C725.7,477.148,727.034,452.861,719.594,428.378z"/>
	<path fill-rule="evenodd" clip-rule="evenodd" fill="#939598" d="M586.73,466.042c-3.014-2.432-4.15-2.454-5.538,1.181
		c-2.479,6.495-5.376,12.831-7.866,19.322c-2.275,5.931-4.665,11.871-6.249,18.003c-2.267,8.775-3.977,17.704-5.688,26.613
		c-2.157,11.235-4.786,22.444-5.925,33.795c-1.586,15.803-2.051,31.722-2.84,47.598c-0.261,5.236,0.038,10.5-0.078,15.747
		c-0.053,2.341-0.756,4.677-0.726,7.01c0.085,6.688,0.4,13.372,0.61,20.058c0.039,1.229,0.006,2.462,0.006,3.693
		c0.408,0.067,0.816,0.134,1.225,0.202c1.451-3.404,2.966-6.783,4.342-10.219c3.766-9.407,7.532-18.816,11.185-28.268
		c2.97-7.684,5.912-15.383,8.608-23.165c1.863-5.373,2.951-11.028,4.996-16.32c2.103-5.44,3.352-10.504-0.455-15.697
		c-0.919-1.252-1.256-2.938-1.821-4.44c-3.083-8.205-5.22-16.605-6.251-25.356c-0.281-2.382-0.111-3.866,1.533-5.31
		c9.352-8.209,15.762-18.635,22.027-29.174c1.377-2.315,3.122-4.459,4.185-6.905c2.328-5.37,4.327-10.882,6.644-16.801
		c-0.102-0.053-0.905-0.778-1.783-0.884C598.777,475.749,592.69,470.85,586.73,466.042z"/>
	<path fill-rule="evenodd" clip-rule="evenodd" fill="#939598" d="M428.947,224.951l-2.749-1.599v0
		c0.509-0.42,1.014-0.837,1.513-1.245c-1.426-2.046-2.565-3.763-3.79-5.416c-0.685-0.924-1.421-1.648-2.223-2.067v0l-0.004-0.001
		c-0.144-0.075-0.291-0.139-0.439-0.194l-4.441-1.959l-0.001,0c0.275-0.218,0.534-0.422,0.76-0.576
		c-2.158-2.26-3.708-4.08-5.457-5.68c-8.478-7.756-13.906-17.727-19.457-27.5c-1.42-2.501-2.759-2.897-4.742-2.581
		c-5.244,0.838-9.626-1.379-13.788-3.87c-2.069-1.239-3.487-3.564-5.629-5.858c-0.863,10.42,6.644,25.494,22.794,31.523
		c-13.347,5.97-25.767,0.265-38.128-3.882c1.184,4.823,2.102,9.06,3.323,13.207c0.334,1.138,1.376,2.412,2.434,2.935
		c0.271,0.134,0.54,0.274,0.81,0.41l0.859,3.128c-0.508-0.228-1.005-0.456-1.527-0.684c2.457,5.142,3.545,10.853,6.996,13.737
		c0.318,0.266,0.669,0.505,1.011,0.751l0.614,4.166c-0.084,0.183-0.169,0.364-0.254,0.547c2.029,2.566,3.911,5.27,6.132,7.658
		c1.884,2.024,3.895,4.265,6.323,5.374c3.922,1.792,8.354,2.442,12.35,4.103c5.493,2.285,10.678,5.315,16.193,7.533
		c3.295,1.325,7.007,2.819,9.498-2.058c1.269-2.484,3.544-4.496,5.525-6.568c5.179-5.417,10.512-10.689,15.597-16.191
		c0.624-0.676,0.535-2.602,0.058-3.605C437.482,225.073,432.716,223.827,428.947,224.951z"/>
	<path fill-rule="evenodd" clip-rule="evenodd" fill="#939598" d="M478.631,134.339c-0.467,0.512-0.934,1.024-1.399,1.536
		c3.519,3.682,7.322,7.138,10.479,11.108c3.197,4.02,6.13,8.354,8.484,12.908c2.365,4.576,3.873,9.594,6.14,15.398
		c4.018-10.534,11.886-15.089,22.36-17.986c-5.099-4.346-9.404-8.808-14.451-12.146
		C500.686,138.836,489.271,137.662,478.631,134.339z"/>
</g>
<g>
	<path fill-rule="evenodd" clip-rule="evenodd" fill="#406325" d="M468.782,173.669c-2.158-3.958-4.771-7.938-8.063-10.942
		c-0.355-0.324-0.738-0.595-1.133-0.841v-0.012l-5.636-5.177c0.35-0.114,0.698-0.229,1.063-0.33
		c-0.979-1.292-1.663-2.558-2.672-3.462c-4.124-3.697-8.534-7.092-12.481-10.963c-1.841-1.805-3.413-2.694-4.86-2.648l-3.953-3.633
		l-0.012-0.008c0.443-1.173-0.017-2.358-1.556-3.72c-7.006-6.199-13.834-12.612-21.268-19.47l-0.002-0.004l-2.53-3.342
		c0.008-0.01,0.016-0.021,0.025-0.031c-14.885-17.963-26.739-37.427-31.082-60.811c-4.18,16.139,5.941,63.354,16.286,82.928
		l-0.001,0.003l0.021,0.033c1.042,1.969,2.086,3.657,3.119,5.003l4.535,7.275l0.007,0.005c0.467,3.224,1.707,6.396,4.227,9.467
		c2.296,2.798,3.696,6.311,5.753,9.329c2.964,4.35,6.153,8.545,9.821,13.599c0.128-0.803,0.255-1.59,0.38-2.364l2.973,3.54
		c0.222,3.126,1.471,6.102,4.883,8.265c1.644,1.042,2.969,2.598,4.402,3.958c2.683,2.547,5.338,5.124,8.191,7.869
		c0.031-0.304,0.059-0.6,0.088-0.902l4.249,2.801c0.938,1.623,2.556,3.052,5.23,4.181c0.127,0.054,0.195,0.237,0.318,0.312
		c3.77,2.253,7.423,4.741,11.344,6.692c5.482,2.727,11.163,5.053,17.538,7.898c-0.037,0.065,0.662-0.587,0.628-1.198
		c-0.478-8.551-0.192-17.273-1.891-25.585C475.455,185.185,471.884,179.357,468.782,173.669z"/>
	<path fill-rule="evenodd" clip-rule="evenodd" fill="#406325" d="M719.877,188.517c-3.396,1.814-6.712,4.265-10.427,5.351
		c-2.389,0.698-2.927,1.777-2.961,3.375l-3.446,1.418c-0.238-0.635-0.502-1.271-0.815-1.908c-5.989,3.353-11.658,6.528-17.677,9.898
		c1.659,2.697,3.224,5.242,4.807,7.819c-4,2.056-4,2.056-0.166,11.022c0.598-0.164,1.194-0.368,1.787-0.607l1.968,3.122
		c-0.78,0.881-1.413,1.906-1.311,2.69c0.327,2.514,1.648,4.898,2.616,7.48c12.355-1.285,19.664-9.116,26.089-17.902
		C725.148,213.7,724.716,193.705,719.877,188.517z"/>
	<path fill-rule="evenodd" clip-rule="evenodd" fill="#406325" d="M566.011,203.103c4.569-0.341,8.667,1.015,13.012,2.434
		c4.721,1.54,10.104,1.046,16.038,1.503c-2.21-4.617-6.009-5.428-9.543-7.023c-8.607-3.884-16.823-8.661-25.516-12.319
		c-3.67-1.545-8.221-4.641-12.238-0.792c-5.498,5.265-8.646,11.979-10.826,20.718c5.082-1.267,9.268-2.66,13.563-3.291
		C555.621,203.582,560.837,203.489,566.011,203.103z"/>
	<path fill-rule="evenodd" clip-rule="evenodd" fill="#406325" d="M662.031,245.121c-7.719-2.74-15.143-6.311-22.932-9.617
		c0.716,2.18,1.242,3.786,1.765,5.381c2.009,0.618,3.989,1.567,6.034,1.738c3.466,0.289,6.995,1.085,8.024,4.44
		c1.782,5.808,2.64,11.9,3.856,17.74c9.493,1.115,15.895-0.5,18.572-4.39c-3.131-0.887-6.331-1.795-9.701-2.75
		c5.585,0,11.467,1.455,16-0.395c4.863-1.985,5.229-8.417,5.96-13.572l-2.201,3.441
		C678.555,248.513,670.093,247.983,662.031,245.121z"/>
	<path fill-rule="evenodd" clip-rule="evenodd" fill="#406325" d="M640.896,240.979c-0.01-0.031-0.021-0.063-0.031-0.094
		c-0.03-0.009-0.062-0.021-0.093-0.03L640.896,240.979z"/>
	<path fill-rule="evenodd" clip-rule="evenodd" fill="#406325" d="M537.316,218.208c0.301,0.756,0.815,1.455,1.637,2.063
		c0.302,0.223,0.609,0.441,0.914,0.662l2.096,4.307c-0.609-0.459-1.216-0.933-1.82-1.423c0.978,8.892,16.352,22.674,25.84,23.243
		c12.831,0.769,25.862,1.164,36.019-9.111c-0.539,0.031-1.077,0.06-1.615,0.088l1.193-3.903c1.594-0.366,3.186-0.788,4.774-1.278
		c1.072-0.331,2.041-1.001,3.99-1.983c-26.172-2.698-50.796-5.17-72.492-20.097C537.438,213.161,536.416,215.941,537.316,218.208z"
		/>
	<path fill-rule="evenodd" clip-rule="evenodd" fill="#406325" d="M675.419,219.356c-3.565,0.792-7.217,1.555-10.846,1.638
		c-9.797,0.224-19.602,0.077-29.746,0.077c0,1.869,0,3.866,0,5.354c16.868,0,33.729,0,50.808,0
		C684,219.939,680.867,218.146,675.419,219.356z"/>
</g>
<g>
	<path fill-rule="evenodd" clip-rule="evenodd" fill="#8B9E6C" d="M771.519,181.375c-1.747-4.008-5.204-4.691-8.643-6.058
		c-11.089-4.408-22.554-3.171-33.89-2.29c-9.802,0.762-19.512,2.669-29.281,3.915c-6.149,0.784-12.388,0.969-18.493,1.984
		c-7.58,1.26-14.822,0.547-22.131-1.646c-1.741-0.522-4.018,0.74-6.564,1.293c-3.493-7.267-7.483-15.568-11.475-23.87
		c-0.411,0.05-0.822,0.101-1.232,0.151c-0.675,5.877-5.677-12.959-14.259-22.553c-4.566-5.105-9.372-10.003-14.192-14.875
		c-5.905-5.969-11.435-12.473-18.06-17.519c-6.362-4.846-13.615-8.873-21.035-11.883c-7.475-3.033-15.529-5.227-23.526-6.249
		c-11.302-1.444-22.124,2.073-32.652,6.003c-1.644,0.613-3.021,1.904-4.584,2.771c-5.716,3.172-11.96,5.646-17.076,9.587
		c-8.385,6.461-16.121,13.778-23.94,20.943c-1.549,1.419-2.902,3.699-3.139,5.723c-0.249,2.128,6.205,5.295,8.693,5.203
		c4.815-0.179,9.678-0.305,14.459,0.164c3.291,0.324,6.72,1.212,9.659,2.694c4.711,2.376,9.207,5.259,13.538,8.291
		c4.274,2.993,8.372,6.281,12.269,9.754c1.854,1.654,3.061,4.036,4.725,6.313c-11.734,2.968-20.679,5.422-29.132,24.577
		c-0.831-2.34-1.186-4.064-2.007-5.527c-4.812-8.571-8.946-17.603-16.187-24.574c-1.682-1.619-3.452-3.146-5.094-4.803
		c-4.976-5.025-9.638-10.401-14.928-15.068c-6.429-5.671-13.38-10.748-20.089-16.103c-3.371-2.69-6.665-5.479-10.065-8.131
		c-6.666-5.2-13.78-9.903-19.972-15.611c-6.92-6.379-13.126-13.551-19.432-20.569c-2.628-2.927-4.664-6.379-7.054-9.53
		c-1.567-2.065-3.285-4.017-4.935-6.02c-0.554,0.381-1.109,0.762-1.663,1.143c3.509,7.402,6.627,15.023,10.643,22.139
		c3.505,6.211,7.855,11.977,12.14,17.71c4.114,5.505,8.33,10.993,13.032,15.987c5.992,6.365,12.456,12.293,18.836,18.281
		c4.046,3.796,8.438,7.224,12.445,11.057c4.915,4.701,10.075,9.271,14.244,14.591c5.021,6.407,9.515,13.317,13.493,20.425
		c4.192,7.49,7.453,15.484,7.423,24.37c-0.02,5.616-0.004,11.232-0.004,17.26c-1.283,0-2.858,0.402-4.097-0.074
		c-3.92-1.506-7.576-3.822-11.58-4.955c-11.032-3.122-20.179-9.527-29.353-15.96c-2.042-1.433-4.332-2.67-5.978-4.479
		c-5.361-5.896-10.272-12.208-15.741-17.997c-6.687-7.078-11.337-15.458-16.012-23.817c-3.514-6.286-6.802-12.731-9.683-19.327
		c-3.372-7.719-6.219-15.669-9.245-23.537c-1.672-4.348-3.244-8.735-4.861-13.104c-0.532,0.128-1.064,0.256-1.596,0.385
		c0.045,0.965-0.077,1.975,0.162,2.889c2.647,10.15,5.829,20.188,7.912,30.451c2.402,11.833,6.884,22.843,11.986,33.6
		c4.169,8.789,8.65,17.562,14.137,25.558c5.275,7.686,11.551,14.844,18.244,21.353c7.433,7.229,15.755,13.56,23.866,20.062
		c2.245,1.8,5.119,2.816,7.704,4.193c-0.307,0.634-0.614,1.268-0.921,1.901c-4.506-2.126-9.013-4.253-13.812-6.52
		c-1.02,1.23-2.228,2.72-3.469,4.181c-6.833,8.041-13.663,16.085-20.526,24.101c-1.356,1.583-2.205,2.675,0.624,3.778
		c3.37,1.314,7.035,2.585,9.685,4.893c7.017,6.111,14.729,11.403,20.518,18.997c5.994,7.863,11.633,15.763,15.024,25.146
		c0.866,2.398,2.272,4.832,4.059,6.625c6.263,6.288,12.67,12.448,19.332,18.306c1.421,1.25,15.494,1.45,7.276,5.914
		c4.804,3.899,12.378,13.385,12.92,14.309c2.581,4.401,5.557,8.571,7.947,12.155c2.818-0.511,5.168-0.592,7.244-1.388
		c3.864-1.481,7.5-3.553,11.353-5.07c9.87-3.884,19.844-7.504,29.698-11.426c4.181-1.665,8.181-3.791,12.23-5.771
		c1.072-0.525,2.852-1.292,2.851-1.944c-0.003-1.081-1.01-2.344-1.907-3.201c-2.15-2.053-4.482-3.915-7.299-6.332
		c1.479-0.126,1.935-0.244,2.364-0.183c0.568,0.081,1.182,0.192,1.663,0.479c10.379,6.185,21.146,8.384,32.921,4.078
		c6.07-2.221,10.317-6.945,10.227-13.271c-0.047-3.25-0.761-6.492-1.064-8.878c1.746,0.281,4.473,1.644,6.16,0.835
		c0.005-0.002,0.01-0.005,0.015-0.007v3.458c-0.63,1.21-0.529,2.806,0.074,5.333c5.417-2.557,10.164-5.065,15.118-7.061
		c4.675-1.883,9.597-3.143,14.353-4.839c3.568-1.272,7.264-2.426,10.507-4.313c4.119-2.396,7.965-5.322,11.697-8.307
		c4.561-3.647,9.611-7.022,13.148-11.535c6.277-8.008,5.288-19.519-1.415-27.499c-0.49-0.583-2.001-0.804-2.821-0.534
		c-4.199,1.383-8.241,3.327-12.508,4.403c-3.779,0.953-7.782,1.024-11.992,1.521c0.578,1.521,1.01,3.019,1.333,4.5l-3.746-0.543
		c-0.495-4.668-2.207-9.088-2.874-13.214c-1.149-0.415-2.221-0.81-3.246-1.188l-0.983-3.01c1.229-0.735,2.132-2.841,2.412-4.44
		c0.65-3.688-2.138-4.319-4.972-5.245c-2.471-0.807-6.88,0.737-6.676-4.288c-0.437-0.049-1.003-0.003-1.174-0.241
		c-2.588-3.601-4.182-5.1-6.613-5.185l-2.176-2.296c0.607-0.16,1.213-0.32,1.824-0.481c-0.557-3.569-1.172-7.514-1.787-11.458
		c-1.634-0.517-3.273-1.035-4.912-1.553l-0.434-1.582l3.4-2.638c-0.116,0.748,0.416,1.763,0.597,2.633
		c1.054-0.512,2.691-0.761,3.061-1.581c1.734-3.848,4.524-7.346,2.562,1.808c8.482,0,16.614,0.582,24.625-0.163
		c8.027-0.747,15.93-2.816,24.495-4.42c-5.033-11.42-1.037-11.657,2.984-13.413c7.903-3.449,15.952-6.598,23.691-10.381
		c11.223-5.486,14.448-1.618,14.521-0.493c0.396,6.016,1.133,12.009,1.746,18.01c0.122,1.2,0.223,2.402,0.44,4.746
		c12.334-17.822,27.669-28.225,49.199-27.982C774.818,182.756,772.035,182.56,771.519,181.375z M611.547,231.832
		c0.821,0.442,1.645,0.885,2.453,1.32l-1.117,2.354c-1.744-0.06-3.795,0.373-5.434,0.779c-0.906,0.224-1.616,2.953-1.656,4.556
		c-0.02,0.775,0.654,1.772,1.669,2.744l-1.608,1.523c-0.219-0.3-0.436-0.603-0.648-0.91c-1.855-2.675-3.743-2.804-5.724-1.009
		c-2.054,1.862-4.315,4.01-5.249,6.498c-0.081,0.217-0.175,0.424-0.258,0.64h-1.771c0.489-0.667,0.98-1.331,1.462-2.011
		c-1.824-0.102-2.85-0.278-3.854-0.196c-6.769,0.553-13.527,1.551-20.303,1.666c-12.158,0.205-22.009-4.455-28.573-15.104
		c-4.386-7.115-7.032-14.722-6.242-24.092c-3.726,1.368-6.727,2.719-9.864,3.554c-3.21,0.854-6.554,1.206-9.84,1.776
		c-0.107-0.431-0.217-0.861-0.325-1.292c4.264-1.692,8.527-3.384,13.509-5.36c-5.132-0.912-9.209-1.636-13.286-2.36
		c0.074-0.5,0.148-1,0.223-1.5c6.409,0.519,12.817,1.039,18.49,1.498c1.386-3.973,2.323-8.14,4.253-11.78
		c1.949-3.677,4.883-6.832,7.591-10.494c-5.526-3.02,4.172-6.788,11.937-3.718c7.021,2.776,13.794,6.219,20.552,9.617
		c2.903,1.46,5.433,3.646,8.233,5.332c4.615,2.778,9.279,5.48,13.985,8.101c4.613,2.568,9.189,5.239,13.917,7.573l0.068,7.467
		c0,2.76,0,5.238,0,7.12c0.818,0,1.612-0.003,2.403-0.006l0.633,1.872C614.915,228.635,612.889,229.98,611.547,231.832z"/>
	<path fill-rule="evenodd" clip-rule="evenodd" fill="#8B9E6C" d="M701.021,394.046c-1.761-0.978-2.366-1.094-3.599,0.09
		l-2.873-5.947c-0.071-0.197-0.153-0.377-0.251-0.52c-3.451-5.014-7.216-9.814-10.927-14.646c-2.105-2.74-4.321-5.397-6.428-8.019
		c-8.288,5.971-16.317,11.637-24.203,17.496c-2.513,1.867-5.685,3.251-6.547,6.474l-3.37,1.074c0.209-1.418,0.464-2.825,0.822-4.205
		c1.159-4.459-1.49-6.538-3.833-9.321c-5.438,7.935-12.921,12.816-20.83,16.97c-3.637,1.911-7.815,2.884-11.838,3.939
		c-3.82,1.001-5.36,3.715-3.655,7.275c0.374,0.781,1.198,1.506,1.216,2.27c0.082,3.747,1.289,6.918,3.021,9.926l-2.027,2.85
		c-0.046-0.055-0.09-0.112-0.137-0.167c-2.511,4.247-5.017,8.038-7.071,12.06c-3.688,7.22-6.949,14.661-10.686,21.855
		c-2.968,5.717-2.519,7.649,3.374,10.551c1.165,0.574,2.292,1.225,3.459,1.793c7.909,3.854,15.533,8.58,24.984,7.311
		c2.503-0.336,5.227,0.473,7.611-0.152c6.348-1.664,12.895-3.15,18.729-6.002c4.446-2.173,8.385-5.927,11.694-9.722
		c2.819-3.231,5.76-7.374,6.218-11.39c0.567-4.975,2.63-7.199,6.742-8.901c0.945-0.393,1.979-1.708,2.301-2.829h4.701l0.002-0.019
		c0.41,2.362,0.836,4.722,1.254,7.08c0.305,1.713,1.192,3.322,2.134,5.838c3.996-6.221,4.244-13.627,10.526-17.214
		c1.492,2.179,2.831,4.139,4.176,6.095c1.989,2.894,9.358,4.562,10.955,2.132c3.522-5.362,6.842-10.906,9.671-16.658
		c2.526-5.137,4.282-10.652,6.393-16.037c-2.85-1.767-5.485-3.673-8.355-5.114C709.987,398.058,705.301,396.424,701.021,394.046z"/>
	<path fill-rule="evenodd" clip-rule="evenodd" fill="#8B9E6C" d="M640.771,240.855c-0.002,0.04,0.002,0.072,0,0.111
		c0.04,0.004,0.086,0.005,0.123,0.012C640.896,240.979,640.771,240.855,640.771,240.855z"/>
</g>
<g>
	<path fill-rule="evenodd" clip-rule="evenodd" fill="#5D540E" d="M541.752,370.564c-6.115,1.404-12.146,3.268-18.321,4.294
		c-12.459,2.073-24.999,3.667-37.481,5.606c-0.898,0.14-2.438,1.787-2.281,2.197c1.322,3.448,2.229,7.494,4.665,9.992
		c6.53,6.7,12.822,13.839,21.384,18.197c1.102,0.56,2.333,0.864,3.684,1.352c0.562-1.835,1.273-3.207,1.352-4.613
		c0.157-2.843,1.863-3.199,3.999-2.752c3.665,0.765,7.379,1.456,10.913,2.65c5.31,1.794,10.481,3.995,16.06,6.158
		c0-13.93,0-28.277,0-43.113C543.824,370.532,542.739,370.337,541.752,370.564z"/>
	<path fill-rule="evenodd" clip-rule="evenodd" fill="#5D540E" d="M717.273,481.803c-1.911-3.205-4.991-5.74-6.751-9.004
		c-3.681-6.824-8.688-11.655-15.646-14.009l-3.109-4.183c1.543,0.466,2.975,0.897,4.252,1.283c-2.705-2.686-6.234-6.188-9.781-9.71
		c-0.536,0.646-1.223,1.474-2.013,2.425l-4.928,1.808c-1.488-2.31-2.991-4.371-4.077-6.622c-1.735-3.599-3.826-2.562-5.158-0.212
		c-0.768,1.354-1.176,2.912-1.527,4.461c-0.231,1.021-0.44,2.037-0.708,2.989c0.149,0,0.29,0,0.438,0l-0.325,3.601
		c-1.875,0.553-3.571,2.659-5.161,4.188c-5.11,4.912-9.44,11.031-15.328,14.633c-6.957,4.255-15.37,5.557-23.789,5.047
		c-2.823-0.171-5.664-0.027-8.411-0.027c-0.962,2.864-1.879,5.43-2.675,8.033c-0.385,1.259-0.54,2.588-0.8,3.885
		c0.691-0.039,1.411,0.002,2.113-0.006l0.999,2.951c-4.215,1.712-7.922,4.255-10.72,9.125c-5.254,9.141-12.103,17.462-18.953,25.552
		c-4.34,5.126-5.893,9.7-3.011,16.072c2.787,6.163,4.602,12.762,6.913,19.144c2.154,5.95,4.409,11.863,6.604,17.799
		c2.129,5.758,4.308,11.499,6.332,17.295c1.767,5.057,3.772,10.086,4.916,15.294c1.926,8.759,8.227,16.054,5.397,26.545
		c-3.763,13.952-6.413,28.215-11.23,41.913c-1.356,3.856-2.07,7.964-3.672,11.702c-5.609,13.083-14.109,25.011-15.752,39.662
		c-0.519,4.63-0.865,9.278-1.292,13.917c1.047-2.044,1.982-4.094,2.861-6.146l-0.001,0.009l2.405,8.596
		c-1.877,6.323-3.74,12.655-5.07,19.093c-1.545,7.48-2.267,15.17-2.837,22.806c-1.061,14.203-1.745,28.435-2.636,43.493
		c6.041,0,10.583-0.474,14.98,0.123c5.142,0.696,5.677,0.643,5.69-4.62c0.022-9.299-0.513-18.638,0.175-27.888
		c0.972-13.07,2.761-26.084,4.364-39.103c0.755-6.124,1.681-12.245,2.913-18.288c1.156-5.672,2.735-11.263,4.282-16.846
		c1.588-5.729,3.197-11.463,5.102-17.091c1.995-5.897,4.174-11.746,6.595-17.481c3.755-8.898,7.553-17.793,11.771-26.477
		c2.895-5.955,6.61-11.506,9.773-17.338c0.624-1.15,0.87-2.902,0.491-4.131c-1.578-5.101-3.493-10.096-5.226-15.15
		c-2.854-8.329-6.288-16.526-8.318-25.054c-2.068-8.694-2.649-17.735-4.074-26.594c-0.454-2.824-1.437-5.578-2.326-8.314
		c-2.475-7.608-5.348-15.104-7.451-22.81c-1.789-6.559-2.729-13.349-4.104-20.338c-1.415,1.118-2.674,1.836-3.56,2.873
		c-1.248,1.463-2.892,2.942-3.866,4.519l-2.465-2.947c1.596-2.138,3.162-4.308,5.009-6.201c4.31-4.42,8.485-9.129,13.445-12.71
		c5.304-3.831,11.404-6.579,17.242-9.636c2.688-1.407,5.536-2.539,8.387-3.593c5.795-2.144,11.52-4.697,17.508-6.027
		c4.294-0.954,8.998-0.517,13.462-0.09c3.018,0.288,5.911,2.271,8.901,2.383c0.907,0.034,1.784,0.133,2.622,0.29l1.078,3.441
		c-0.183-0.021-0.354-0.043-0.523-0.066c-0.779-0.11-1.554-0.256-2.846-0.473c1.993,15.805-7.815,24.898-18.951,34.796
		c2.583,2.125,5.284,4.304,7.929,6.549c0.812,0.689,1.468,1.561,2.194,2.348c0.554-0.665,1.276-1.271,1.787-1.952l3.083,2.982
		c-0.234,1.335-0.19,2.842,0.4,3.721c2.275,3.388,5.121,6.392,8.248,10.155c0.577-2.395,1.027-4.191,1.44-5.996
		c2.592-11.356,4.548-22.915,7.921-34.021l4.929-10.598c2.105-3.346,4.438-6.626,6.231-10.112c1.048-2.035,1.616-6.221,0.505-7.149
		c-0.095-0.079-0.189-0.159-0.285-0.239l1.771-2.898c0.296,0.363,0.597,0.721,0.884,1.094c2.105,2.732,4.485,2.693,5.734-0.536
		C718.642,486.042,718.227,483.398,717.273,481.803z"/>
	<path fill-rule="evenodd" clip-rule="evenodd" fill="#5D540E" d="M511.687,371.523c-8.131-17.783-23.037-28.974-38.326-40.062
		c4.348,15.193,10.652,29.837,9.896,46.261C493.034,375.591,502.017,373.632,511.687,371.523z"/>
</g>
<g>
	<path fill-rule="evenodd" clip-rule="evenodd" fill="#C2B59B" d="M649.89,503.594c-3.335,1.547-7.009,2.037-7.918,3.886
		l-9.415,4.917c0.129-0.393,0.253-0.785,0.385-1.178c-0.326-0.211-0.652-0.422-0.979-0.633c-1.133,0.725-2.303,1.395-3.39,2.183
		c-0.748,0.542-1.479,1.118-2.206,1.704c-2.567,2.068-5.071,4.268-7.983,5.552c-4.105,1.812-5.182,4.384-4.586,8.286
		c0.666,4.347,1.385,8.687,2.162,13.015c0.722,4.017,1.343,8.07,2.391,12.006c1.099,4.121,2.655,8.12,4.012,12.173
		c0.399-0.153,0.801-0.306,1.2-0.457c-0.008-2.167,0.039-4.325,0.13-6.477l4.036,0.713c-0.581,7.632-0.751,15.344-0.103,22.92
		c0.804,9.388,3.246,18.642,5.105,27.927c0.329,1.646,0.922,3.575,2.069,4.659c3.831,3.625,7.926,6.977,12.002,10.334
		c4.024,3.315,8.122,6.545,12.241,9.743c1.907,1.479,3.942,2.795,5.92,4.185c0.295-0.269,0.592-0.537,0.887-0.807
		C647.539,595.34,645.147,550.488,649.89,503.594z"/>
	<path fill-rule="evenodd" clip-rule="evenodd" fill="#C2B59B" d="M607.253,632.652c-1.049-5.477-3.407-10.715-5.36-16.001
		c-2.86-7.739-5.858-15.429-8.776-23.146c-1.212-3.204-2.365-6.429-3.942-10.727c-1.674,3.132-2.895,6.053-3.581,8.942
		c-0.687,2.891-0.839,5.752-0.379,8.761c0.195,1.275,0.387,2.551,0.578,3.827l-2.46,4.069c-0.066-0.835-0.126-1.671-0.199-2.506
		c-0.072-0.826-0.916-1.585-1.693-2.849c-2.957,8.677-5.097,16.7-8.418,24.201c-2.662,6.013-4.114,12.051-4.297,18.396l-4.408,8.325
		c0-1.452,0-2.9,0-4.357c-0.976,0.646-1.467,0.796-1.646,1.118c-3.397,6.079-6.723,12.198-10.143,18.263
		c-0.083,0.147-0.171,0.293-0.255,0.439l-4.388,4.825l-2.539-8.152c1.091,0.423,2.175,0.842,3.286,1.278
		c0.164-1.686,0.42-2.824,0.358-3.945c-0.235-4.295-0.774-8.581-0.833-12.876c-0.13-9.625-0.04-19.255-0.04-28.883
		c0-12.171-0.099-24.343,0.043-36.512c0.066-5.794,0.15-11.647,0.998-17.36c1.785-12.035,4.071-23.997,6.166-35.985
		c0.909-5.206,1.528-10.492,2.867-15.587c1.762-6.703,4.001-13.29,6.229-19.86c1.717-5.068,3.561-10.108,5.658-15.028
		c3.024-7.094,6.289-14.088,9.531-21.087c2.437-5.26,4.678-10.648,7.584-15.644c3.685-6.336,8.006-12.302,11.928-18.506
		c0.716-1.132,0.834-2.642,1.222-3.955c-2.578,0.332-4.879,0.8-7.063,1.092l-1.344-6.719c3.789-0.571,7.514-1.517,11.203-3.073
		c-10.409-4.296-19.317-10.303-27.108-20.233c-0.126,0.301-0.247,0.589-0.372,0.887l-3.327-2.511
		c3.091-5.335,6.664-10.251,10.413-14.806c-3.771-6.175-6.868-11.529-10.309-16.653c-0.74-1.103-3.094-2.278-4.069-1.877
		c-5.646,2.323-11.176,4.966-16.582,7.812c-2.011,1.059-3.443,2.965-2.675,5.699c2.833,10.081,1.971,20.269,0.839,30.469
		c-0.448,4.034-0.716,8.087-1.062,12.103c1.17,0.113,2.298,0.222,3.403,0.328l-2.979,4.846c-3.368-0.713-6.729-1.478-10.097-2.178
		c-3.826-0.796-7.623-1.754-11.395-2.784c-1.248-0.34-2.534-0.936-3.527-1.751c-3.094-2.538-4.607-1.995-6.02,1.759
		c-0.361,0.96-0.726,1.925-1.1,2.888l-9.309-2.173c-4.947-3.966-10.516-7.254-14.996-11.664c-4.855-4.778-8.651-10.625-12.979-15.95
		c-3.552-4.373-7.246-8.634-10.787-13.012l-2.166-14.71c1.766,6.425,3.212,12.759,8.013,17.752c1.192,1.24,2.036,2.814,3.041,4.235
		c0.333-0.125,0.666-0.249,1-0.373c-0.26-2.283-0.425-4.581-0.801-6.844c-0.622-3.746-1.35-7.476-2.087-11.202
		c-1.108-5.595-1.965-11.262-3.47-16.75c-2.182-7.954-4.998-15.731-7.267-23.663c-2.825-9.879-7.65-18.732-13.099-27.345
		c-6.657-10.524-17.627-16.051-27.034-23.31c-5.583-4.307-12.021-7.69-18.454-10.667c-9.233-4.273-18.649-8.288-28.292-11.494
		c-8.657-2.878-17.71-4.587-26.622-6.67c-4.271-0.998-8.593-1.915-12.944-2.345c-1.401-0.139-3.712,1.02-4.323,2.232
		c-2.066,4.099-3.442,8.54-5.302,12.752c-1.641,3.714-3.458,7.362-5.416,10.918c-1.905,3.462-4.087,6.772-6.147,10.148
		c2.601,0.271,4.616-0.115,6.347-1.036c1.844-0.981,3.262-3.207,5.139-3.606c8.595-1.83,17.24-4.11,25.951-4.541
		c1.511-0.075,3.019-0.113,4.524-0.123l16.798,8.565c-0.839-0.137-1.677-0.277-2.51-0.436c-4.909-0.931-9.781-2.361-14.728-2.691
		c-3.435-0.229-6.969,1.039-10.459,1.633c-4.755,0.811-9.764,0.933-14.211,2.577c-7.731,2.859-15.601,5.391-23.264,8.523
		c-9.363,3.828-19.779,6.193-30.398,6.104c-7.722-0.065-15.451,0.761-23.416,1.204c0,0.723-0.179,1.286,0.026,1.584
		c4.688,6.797,8.956,13.779,10.916,21.951c1.932,8.053,4.35,16.005,5.925,24.124c1.177,6.062,1.642,12.306,1.91,18.491
		c0.472,10.878,0.533,21.774,0.818,32.661c0.029,1.104,0.414,2.199,0.634,3.298c0.878-0.862,2.238-1.581,2.542-2.613
		c0.868-2.935,0.882-6.163,1.987-8.98c4.875-12.431,8.767-25.284,16.32-36.569c3.967-5.925,6.414-13.018,10.981-18.357
		c7.448-8.708,15.771-16.748,24.327-24.395c3.98-3.557,9.174-6.004,14.171-8.119c9.26-3.92,18.911-5.222,29.144-4.571
		c9.079,0.577,17.304,2.849,24.955,7.329l3.736,4.234l-1.147,0.906c-0.53-0.252-1.058-0.508-1.596-0.738
		c-7.447-3.188-14.944-7.038-23.432-7.022c-7.986,0.015-16.062-0.934-23.693,2.661c-3.374,1.589-7.142,2.389-10.412,4.141
		c-4.218,2.259-8,5.322-12.177,7.669c-8.795,4.942-14.3,13.147-19.698,21.002c-4.853,7.062-7.924,15.405-11.363,23.363
		c-2.974,6.88-5.519,13.959-7.955,21.053c-1.977,5.755-3.453,11.68-5.258,17.497c-2.445,7.881-5.25,15.66-7.422,23.614
		c-2.149,7.873-3.674,15.917-5.529,23.872c-1.442,6.182-2.965,12.344-4.473,18.509c-0.137,0.56-0.498,1.063-0.645,1.622
		c-1.881,7.164-3.938,14.291-5.545,21.516c-1.239,5.569-1.692,11.311-2.88,16.893c-1.881,8.839-4.329,17.56-6.083,26.42
		c-1.821,9.195-3.022,18.512-4.638,27.751c-2.3,13.148-4.738,26.272-7.102,39.409c-0.65,3.61-1.306,7.221-1.853,10.847
		c-1.664,11.04-3.322,22.081-4.877,33.136c-0.454,3.226-0.288,6.551-0.875,9.744c-1.214,6.603-2.849,13.129-4.013,19.738
		c-0.15,0.854,1.319,2.222,2.324,2.961c0.587,0.433,1.747,0.15,2.642,0.094c11.267-0.707,22.533-1.426,33.798-2.146l-12.604,7.55
		c-20.248,0.089-40.917-2.049-61.939-5.973c-0.782,19.771-5.236,38.557-12.502,57.272c5.01,0,9.948,0,14.846,0l-2.087,5.01
		c-4.248-0.179-8.495-0.403-12.734-0.632c-7.945-0.428-15.847-1.683-23.765-2.599c-8.41-0.974-8.731-0.783-11.891,7.273
		c-0.32,0.816-0.679,1.677-1.237,2.333c-3.081,3.617-6.822,6.819-9.236,10.827c-5.865,9.739-14.868,16.491-22.358,24.666
		c-2.481,2.709-5.498,4.928-8.46,7.537c7.297,1.42,14.127,2.876,21.004,4.047c5.077,0.866,10.227,1.299,15.328,2.038
		c9.599,1.389,19.151,3.186,28.786,4.211c10.565,1.124,21.051,2.159,31.54,4.303c11.917,2.437,24.272,2.781,36.454,3.852
		c6.367,0.559,12.79,0.512,19.152,1.111c10.428,0.982,20.809,2.938,31.245,3.235c10.055,0.286,20.171-0.815,30.232-1.647
		c15.083-1.249,30.259-2.062,44.512-8.08c6.543-2.764,13.524-4.613,19.793-7.866c0.316-0.164,0.624-0.345,0.936-0.517l9.565,1.979
		c-0.966,0.893-1.704,2.031-2.701,3.243c5.953,0.502,11.123,1.074,16.309,1.351c12.845,0.682,25.697,1.208,38.543,1.868
		c1.051,0.054,2.058,0.871,3.112,0.949c2.351,0.173,4.723,0.179,7.079,0.084c0.732-0.03,1.497-0.966,2.152-0.867
		c2.604,0.398,5.189,1.587,7.749,1.501c11.296-0.383,22.577-1.172,33.87-1.676c4.855-0.217,5.629-1.218,4.729-5.983
		c-0.312-1.653-0.594-3.32-0.84-4.992l5.541-6.048c0.172,4.774,1.245,4.739,7.982,4.398c0.598-0.03,1.199-0.006,1.799-0.006
		c11.246,0,22.49-0.005,33.736,0.008c1.192,0.001,2.525-0.22,3.553,0.223c3.761,1.62,4.871,0.286,5.105-2.521l2.688,1.116
		c0.188,1.549,1.296,2.772,2.971,3.969c0.893-1.296,2.221-2.36,2.359-3.562c1.064-9.231,1.991-18.481,2.77-27.743
		c0.486-5.77,0.456-11.585,1.001-17.348c0.455-4.809,0.483-9.965,2.32-14.278c5.225-12.275,11.3-24.187,16.945-36.286
		c0.348-0.746,0-1.914-0.251-2.824c-0.291-1.062-0.603-2.117-0.918-3.173l3.377-8.705c0.024,0.103,0.048,0.204,0.071,0.307
		c0.246,1.051,1.021,1.979,1.919,3.651c2.181-11.277,4.169-21.474,6.116-31.678C606.319,639.519,607.869,635.869,607.253,632.652z
		 M567.619,777.614c-0.078,0.162-0.146,0.319-0.209,0.475l0.517-3.074C567.971,775.948,567.977,776.875,567.619,777.614z"/>
	<path fill-rule="evenodd" clip-rule="evenodd" fill="#C2B59B" d="M611.688,741.217c-4.467,14.202-8.137,28.541-6.591,44.444
		c9.795,0,19.41,0,29.927,0c-7.418-14.837-14.784-29.576-22.152-44.316C612.477,741.302,612.083,741.259,611.688,741.217z"/>
</g>
<g>
	<path fill-rule="evenodd" clip-rule="evenodd" fill="#FFFFFF" d="M599.04,211.348l-7.134-1.678l-14.251-1.598
		c-0.117-0.454-0.239-0.906-0.375-1.355c-11.788,0.149-23.787-1.814-36.639,3.064c6.448,3.151,11.833,6.412,17.644,8.469
		c7.806,2.763,15.93,4.641,23.953,6.759c0.849,0.224,1.942-0.481,4.111-1.089c-1.872-1.072-3.258-2.299-4.314-3.632l5.763,0.766
		l12.163-3.187c1.246,1.028,2.797,1.601,4.025,1.151c1.733-0.635,5.193-2.011,5.193-5.77c-2.501-2.472-5.253-3.456-7.412-3.577
		C601.013,209.629,599.898,210.397,599.04,211.348z"/>
	<path fill-rule="evenodd" clip-rule="evenodd" fill="#FFFFFF" d="M686.005,230.172c-1.067,0.201-2.011,1.064-2.972,1.836h-6.688
		l-7.381,0.418c0.124-0.664,0.274-1.373,0.457-2.151c-10.812,0-21.58,0-32.663,0c2.487,4.754,31.149,15.915,36.273,14.337
		c-2.135-2.547-3.396-4.347-3.993-6.191l1.83-0.23h6.846l6.135-1.34c0.668,0.625,1.539,1.083,2.624,1.34
		c3.137-0.671,2.418-2.007,3.628-3.01C689.628,231.836,689.251,229.56,686.005,230.172z"/>
</g>
<g>
	<g>
		<path fill-rule="evenodd" clip-rule="evenodd" d="M624.67,329.431c0.035,8.757-5.118,13.832-11.975,17.667
			c-0.977,0.545-2.219,0.75-3.358,0.836c-1.79,0.136-3.601,0.111-5.396,0.025c-9.767-0.469-19.489-0.786-27.773,7.021
			c0,0.091-0.478,1.604,0.077,2.386c3.681,5.196,7.327,10.464,11.546,15.209c1.606,1.808,2.253,2.792,0.774,4.656
			c-2.526,3.187-5.054,6.373-7.591,9.55c-1.841,2.305-2.571,4.376,0.286,6.649c3.768,2.997,7.146,6.489,10.985,9.38
			c2.068,1.558,4.747,2.305,8.071,3.843c-0.695-4.187-1.162-6.993-1.736-10.447c15.488-4.888,29.568-12.724,41.326-25.25
			c3.058,2.845,5.974,5.56,8.588,7.992c8.964-6.395,17.973-12.848,27.016-19.251c1.744-1.235,2.618-1.516,4.264,1.08
			c6.565,10.359,14.066,19.83,23.903,27.689c6.115,4.887,13.12,6.774,19.676,10.093c1.499,0.759,3.389,0.749,6.154,1.304
			c-0.994,3.514-1.773,7.105-3.025,10.524c-2.421,6.607-2.52,13.01-0.607,19.892c1.989,7.16,3.207,14.622,3.913,22.033
			c1.268,13.277,2.637,26.618,2.567,39.926c-0.057,11.009-1.768,22.061-3.407,32.994c-1.452,9.678-3.19,19.404-5.949,28.771
			c-3.01,10.218-7.705,19.927-10.991,30.075c-3.54,10.934-9.377,20.688-14.811,30.619c-3.345,6.113-7.951,11.549-12.129,17.187
			c-5.125,6.914-10.396,13.723-15.474,20.404c-9.435-8.603-18.403-16.778-27.371-24.954c-0.551,0.313-1.103,0.625-1.654,0.938
			c0.58,2.024,0.881,4.19,1.805,6.044c1.557,3.124,4.573,5.911,4.988,9.098c0.395,3.026-1.515,6.489-2.844,9.574
			c-2.598,6.031-5.533,11.919-8.261,17.896c-2.394,5.245-4.899,10.452-6.977,15.822c-2.387,6.171-4.331,12.513-6.514,18.763
			c-2.378,6.808-4.792,13.603-7.224,20.391c-1.087,3.036-0.918,5.596,0.603,8.779c4.234,8.868,7.381,18.253,11.565,27.146
			c3.334,7.085,7.585,13.736,11.39,20.603c1.588,2.868,3.071,5.796,4.669,8.822c-13.132,0-25.77,0-38.78,0
			c-4.688,15.425-2.178,31.603-3.088,47.842c-10.301,0-20.544,0-31.037,0c0-16.736,0-33.407,0-50.752
			c-1.489-0.074-3.042-0.218-4.594-0.22c-15.148-0.017-30.303,0.222-45.442-0.15c-4.578-0.112-7.111,0.961-6.822,5.611
			c0.264,4.226-1.962,4.427-5.238,4.484c-28.98,0.505-57.957,1.443-86.938,1.591c-10.917,0.055-21.875-1.346-32.75-2.635
			c-6.708-0.794-12.008,2.564-17.865,4.442c-4.569,1.464-9.275,2.5-13.911,3.761c-3.249,0.883-6.43,2.186-9.733,2.661
			c-7.73,1.113-15.501,2.406-23.282,2.604c-15.738,0.399-31.504,0.471-47.239,0.019c-15.145-0.437-30.665,0.098-45.277-3.146
			c-12.898-2.863-25.91-1.595-38.684-4.543c-9.851-2.274-20.28-1.972-30.428-3.046c-9.815-1.038-19.884-1.305-29.327-3.833
			c-13.09-3.504-26.509-3.709-39.672-6.05c-3.17-0.563-6.319-1.256-10.293-2.052c4.625-3.434,8.679-6.572,12.869-9.517
			c3.81-2.678,8.358-4.162,11.066-8.56c1.341-2.178,4.503-3.144,6.496-5.025c7.402-6.993,15.249-13.641,21.791-21.381
			c5.438-6.434,9.214-14.261,13.905-21.352c0.63-0.951,2.405-1.839,3.494-1.682c7.976,1.152,15.904,2.636,23.866,3.891
			c3.031,0.479,4.521-0.277,5.204-4.072c1.259-6.987,3.979-13.696,5.735-20.61c0.829-3.263,1.109-6.729,1.168-10.109
			c0.155-8.912,0.053-17.829,0.053-27.771c11.446,1.979,23.373,4.041,35.76,6.182c1.317-9.695,2.493-18.996,3.867-28.268
			c1.312-8.851,2.865-17.664,4.243-26.503c0.478-3.063,0.722-6.161,1.122-9.237c1.497-11.521,2.645-23.104,4.621-34.543
			c2.213-12.812,5.328-25.465,7.779-38.239c2.073-10.807,3.543-21.729,5.684-32.52c1.648-8.306,4.013-16.467,5.895-24.729
			c2.012-8.832,3.66-17.749,5.793-26.551c1.532-6.319,3.662-12.49,5.405-18.762c1.001-3.601,2.082-7.228,2.553-10.917
			c0.618-4.849,1.103-9.79,0.883-14.658c-0.562-12.442-1.38-24.878-2.419-37.29c-0.664-7.923-1.706-15.828-2.95-23.682
			c-0.889-5.609-1.89-11.294-3.731-16.639c-3.85-11.175-8.088-22.23-12.606-33.153c-1.334-3.227-4.137-5.846-6.268-8.743
			c0.183-0.466,0.364-0.931,0.546-1.397c4.494,1.062,8.999,2.077,13.475,3.209c1.565,0.396,3.041,1.489,4.588,1.556
			c4.791,0.208,9.627-0.272,14.388,0.155c7.81,0.7,14.821-2.182,22.067-4.127c0.989-0.266,2.047-0.476,3.058-0.422
			c4.489,0.237,7.588-2.121,9.526-5.714c5.453-10.106,10.918-20.228,15.754-30.633c1.601-3.446,1.302-7.775,1.932-12.108
			c11.938-1.148,23.419,2.986,35.608,5.426c-11.148-18.235-16.543-37.522-18.889-57.29c6.791,3.401,13.116,6.531,19.401,9.74
			c1.883,0.961,3.589,2.282,5.501,3.166c0.868,0.401,2.042,0.138,3.078,0.175c-0.236-1.22-0.042-3.054-0.774-3.566
			c-10.135-7.091-9.304-17.745-9.388-28.121c-0.015-1.795-0.002-3.592-0.002-6.123c6.459,7.444,13.726,12.648,22.338,15.726
			c0.507-0.38,1.014-0.761,1.521-1.141c-1.169-2.726-2.506-5.394-3.477-8.188c-3.853-11.1-8.125-22.093-11.214-33.406
			c-2.795-10.238-4.263-20.839-6.278-31.287c-0.196-1.016-0.158-2.081-0.186-3.124c-0.489-18.028-0.072-36.019,2.765-53.867
			c0.423-2.666,1.672-5.199,2.729-8.363c3.473,5.193,6.391,10.062,9.813,14.545c3.965,5.192,8.39,10.033,12.585,15.052
			c2.968,3.552,5.733,7.287,8.865,10.685c3.674,3.988,7.62,7.729,11.498,11.525c5.192,5.083,10.278,10.291,15.711,15.105
			c3.191,2.829,7,4.953,10.473,7.474c6.578,4.775,13.113,9.606,20.191,14.8c2.929-4.296,5.301-8.316,8.215-11.892
			c2.72-3.337,5.881-6.354,9.092-9.241c5.249-4.723,10.526-9.449,16.129-13.733c3.074-2.352,6.771-3.946,10.305-5.633
			c16.254-7.762,32.971-10.821,51.121-7.482c11.386,2.095,21.61,6.701,31.439,11.87c7.685,4.041,13.908,10.885,20.7,16.579
			c2.053,1.721,3.832,3.766,5.745,5.654c7.945,7.841,14.67,16.757,20.392,26.205c6.826,11.271,13.537,22.735,17.614,35.445
			c0.249,0.775,1.385,1.772,2.136,1.797c5.577,0.183,11.159,0.163,16.741,0.171c4.499,0.007,9.011,0.175,13.493-0.11
			c5.737-0.366,11.68-0.312,17.13-1.86c12.88-3.658,25.977-4.859,39.17-4.207c6.932,0.343,14.183,0.384,20.478,4.808
			c3.114,2.189,7.192,2.957,10.7,4.646c7.433,3.579,7.396,3.654,6.678,12.282c-4.582,0.783-9.247,1.318-13.764,2.447
			c-2.787,0.697-5.412,2.173-7.991,3.526c-3.65,1.916-7.582,3.575-10.687,6.183c-4.786,4.02-9.109,8.626-13.375,13.22
			c-3.849,4.145-8.324,8.122-10.786,13.042c-3.614,7.22-10.854,9.364-16.404,13.742c-2.623,2.068-6.898,2.039-10.598,3.005
			c-1.62,4.032-3.427,8.527-5.504,13.695c5.084,5.691,8.806,13.296,9.173,22.045c0.393,9.333-3.475,17.049-10.895,22.74
			c-4.934,3.783-9.919,7.593-15.292,10.675c-4.374,2.509-9.384,3.894-14.061,5.896c-2.472,1.058-4.726,2.73-7.268,3.499
			c-7.542,2.282-15.179,4.25-22.776,6.35C627.631,328.536,626.373,328.928,624.67,329.431z M640.771,240.855
			c2.04,0.616,4.051,1.595,6.127,1.768c3.466,0.289,6.995,1.085,8.024,4.44c1.782,5.808,2.64,11.9,3.856,17.74
			c9.493,1.115,15.895-0.5,18.572-4.39c-3.131-0.887-6.331-1.795-9.701-2.75c5.585,0,11.467,1.455,16-0.395
			c4.863-1.985,5.229-8.417,5.96-13.572c0.491,1.067-2.201,3.441-2.201,3.441c-8.854,1.375-17.316,0.845-25.378-2.017
			c-7.719-2.74-15.143-6.311-22.932-9.617c0.729,2.223,1.263,3.849,1.795,5.473c-0.444-0.076-1.11,0.009-1.297-0.251
			c-4.152-5.779-5.744-6.146-12.349-3.942c-3.853,1.285-7.641,2.403-11.772-0.567c-1.801-1.293-5.434-0.575-8.027,0.067
			c-0.906,0.224-1.616,2.953-1.656,4.556c-0.058,2.336,6.105,6.693,9.295,6.274c6.189-0.814,10.159,1.269,12.301,7.271
			c0.362,1.014,2.894,2.163,4.006,1.835c3.879-1.144,7.575-2.908,11.85-4.642c-0.063-0.083,0.709,0.614,1.096,1.482
			c1.18,2.641,3.634,2.891,5.508,1.982c1.312-0.637,2.278-2.875,2.571-4.544c0.65-3.688-2.138-4.319-4.972-5.245
			C644.957,244.441,640.492,246.024,640.771,240.855z M416.295,446.438c-1.488,2.518-2.969,5.039-4.464,7.553
			c-4.289,7.209,0.046,17.483,8.44,19.038c11.69,2.164,23.256,2.88,34.651-2.448c7.301-3.415,14.398-6.591,21.156-11.375
			c8.003-5.666,14.777-12.16,20.683-19.639c4.891-6.192,8.957-13.056,13.079-19.81c0.497-0.813-0.514-3.321-1.545-4.162
			c-5.052-4.122-10.817-7.466-15.427-12.002c-4.855-4.778-8.651-10.625-12.979-15.95c-4.622-5.691-9.493-11.188-13.943-17.008
			c-4.728-6.181-8.867-12.813-13.661-18.937c-6.648-8.493-13.584-16.766-20.563-24.992c-3.521-4.15-7.009-8.489-11.228-11.843
			c-5.37-4.269-11.098-8.482-17.341-11.156c-7.447-3.188-14.944-7.038-23.432-7.022c-7.986,0.015-16.062-0.934-23.693,2.661
			c-3.374,1.589-7.142,2.389-10.412,4.141c-4.218,2.259-8,5.322-12.177,7.669c-8.795,4.942-14.3,13.147-19.698,21.002
			c-4.853,7.062-7.924,15.405-11.363,23.363c-2.974,6.88-5.519,13.959-7.955,21.053c-1.977,5.755-3.453,11.68-5.258,17.497
			c-2.445,7.881-5.25,15.66-7.422,23.614c-2.149,7.873-3.674,15.917-5.529,23.872c-1.442,6.182-2.965,12.344-4.473,18.509
			c-0.137,0.56-0.498,1.063-0.645,1.622c-1.881,7.164-3.938,14.291-5.545,21.516c-1.239,5.569-1.692,11.311-2.88,16.893
			c-1.881,8.839-4.329,17.56-6.083,26.42c-1.821,9.195-3.022,18.512-4.638,27.751c-2.3,13.148-4.738,26.272-7.102,39.409
			c-0.65,3.61-1.306,7.221-1.853,10.847c-1.664,11.04-3.322,22.081-4.877,33.136c-0.454,3.226-0.288,6.551-0.875,9.744
			c-1.214,6.603-2.849,13.129-4.013,19.738c-0.15,0.854,1.319,2.222,2.324,2.961c0.587,0.433,1.747,0.15,2.642,0.094
			c14.232-0.893,28.464-1.799,42.695-2.71c0.439-0.028,0.873-0.156,1.31-0.233c7.93-1.413,15.868-2.779,23.787-4.252
			c8.775-1.63,17.591-3.105,26.271-5.149c4.171-0.982,7.943-3.7,12.119-4.614c11.049-2.423,21.14-7.186,31.329-11.786
			c4.423-1.997,8.889-3.9,13.335-5.845c-58.458,40.746-123.169,46.793-191.591,34.021c-0.782,19.771-5.236,38.557-12.502,57.272
			c16.103,0,31.523,0,46.943-0.002c0.3,0,0.604,0.014,0.899-0.031c5.854-0.883,11.701-1.811,17.562-2.65
			c4.517-0.647,9.062-1.104,13.572-1.789c7.55-1.147,15.094-2.341,22.617-3.651c4.898-0.852,9.847-1.625,14.607-3.006
			c6.987-2.029,13.831-4.553,20.725-6.898c5.774-1.965,11.532-3.977,17.297-5.968c-0.842,1.279-1.988,2.567-3.422,3.165
			c-9.292,3.87-18.599,7.72-28.007,11.297c-3.797,1.443-7.866,2.166-11.804,3.244c-7.575,2.075-15.091,4.406-22.738,6.168
			c-4.706,1.085-9.599,1.423-14.427,1.901c-12.655,1.254-25.299,2.955-37.987,3.431c-11.912,0.447-23.889-0.19-35.811-0.832
			c-7.945-0.428-15.847-1.683-23.765-2.599c-8.41-0.974-8.731-0.783-11.891,7.273c-0.32,0.816-0.679,1.677-1.237,2.333
			c-3.081,3.617-6.822,6.819-9.236,10.827c-5.865,9.739-14.868,16.491-22.358,24.666c-2.481,2.709-5.498,4.928-8.46,7.537
			c7.297,1.42,14.127,2.876,21.004,4.047c5.077,0.866,10.227,1.299,15.328,2.038c9.599,1.389,19.151,3.186,28.786,4.211
			c10.565,1.124,21.051,2.159,31.54,4.303c11.917,2.437,24.272,2.781,36.454,3.852c6.367,0.559,12.79,0.512,19.152,1.111
			c10.428,0.982,20.809,2.938,31.245,3.235c10.055,0.286,20.171-0.815,30.232-1.647c15.083-1.249,30.259-2.062,44.512-8.08
			c6.543-2.764,13.524-4.613,19.793-7.866c5.976-3.101,11.281-7.492,16.886-11.308c1.543-1.051,3.36-1.83,4.615-3.149
			c4.151-4.364,8.11-8.91,12.13-13.398c5.092-5.686,10.458-11.156,15.176-17.139c4.729-5.994,9.104-12.32,13.098-18.829
			c5.247-8.551,10.056-17.378,14.896-26.173c4.982-9.052,9.821-18.185,14.637-27.325c2.501-4.749,4.983-9.525,7.076-14.458
			c0.414-0.976-0.588-3.372-1.617-4.005c-5.076-3.12-10.55-5.603-15.556-8.818c-5.002-3.215-9.679-6.952-14.387-10.603
			c-5.992-4.647-11.988-9.304-17.759-14.218c-3.646-3.104-7.294-6.059-10.099-10.305c-3.48-5.27-8.652-9.405-12.971-14.143
			c-2.071-2.271-3.872-4.792-5.772-7.217c-2.263-2.888-4.754-5.637-6.693-8.73c-3.284-5.236-6.253-10.673-9.278-16.069
			c-2.391-4.267-5.06-8.435-6.909-12.933c-3.825-9.301-7.642-18.651-10.608-28.245c-3.042-9.838-5.125-19.975-7.497-30.012
			c-0.809-3.421-1.197-6.94-1.819-10.407c-0.881-4.908-2.314-9.78-2.599-14.72c-0.636-11.021-0.815-22.074-0.976-33.117
			c-0.149-10.293-0.032-20.59-0.032-30.886c1.042,4.063,1.449,8.156,1.756,12.256c0.42,5.627,0.503,11.292,1.2,16.881
			c1.214,9.755,2.759,19.472,4.221,29.196c0.74,4.916,1.277,9.896,2.476,14.704c2.772,11.121,5.582,22.253,8.983,33.19
			c2.133,6.857,5.984,13.197,7.951,20.086c2.555,8.947,7.319,16.681,11.538,24.756c0.797,1.525,0.778,3.536,1.729,4.912
			c3.972,5.748,8.059,11.426,12.316,16.967c4.932,6.418,9.795,12.932,15.231,18.91c4.926,5.417,10.485,10.277,15.941,15.188
			c6.784,6.105,13.356,12.558,20.743,17.851c7.667,5.492,16.184,9.802,24.356,14.582c4.932,2.884,9.77,5.983,14.909,8.442
			c8.43,4.034,17.028,7.723,25.636,11.37c6.317,2.678,12.763,5.057,19.627,7.755c0.164-1.686,0.42-2.824,0.358-3.945
			c-0.235-4.295-0.774-8.581-0.833-12.876c-0.13-9.625-0.04-19.255-0.04-28.883c0-12.171-0.099-24.343,0.043-36.512
			c0.066-5.794,0.15-11.647,0.998-17.36c1.785-12.035,4.071-23.997,6.166-35.985c0.909-5.206,1.528-10.492,2.867-15.587
			c1.762-6.703,4.001-13.29,6.229-19.86c1.717-5.068,3.561-10.108,5.658-15.028c3.024-7.094,6.289-14.088,9.531-21.087
			c2.437-5.26,4.678-10.648,7.584-15.644c3.685-6.336,8.006-12.302,11.928-18.506c0.716-1.132,0.834-2.642,1.222-3.955
			c-4.247,0.546-7.744,1.471-11.204,1.348c-9.188-0.331-18.404-0.739-27.523-1.833c-7.532-0.904-14.952-2.778-22.4-4.328
			c-3.826-0.796-7.623-1.754-11.395-2.784c-1.248-0.34-2.534-0.936-3.527-1.751c-3.094-2.538-4.607-1.995-6.02,1.759
			c-1.581,4.201-3.197,8.484-5.518,12.293c-6.146,10.09-12.093,20.406-21.375,28.115c-3.803,3.157-7.637,6.319-11.736,9.061
			c-3.6,2.407-7.491,4.446-11.434,6.255c-4.501,2.062-9.06,4.377-13.845,5.359c-9.278,1.904-18.659,2.441-28.241,1.211
			c-8.813-1.131-16.069-4.009-20.67-11.893c-0.764-1.308-1.525-3.118-1.227-4.461C405.705,453.848,410.806,449.989,416.295,446.438z
			 M501.557,183.8c-0.831-2.34-1.186-4.064-2.007-5.527c-4.812-8.571-8.946-17.603-16.187-24.574
			c-1.682-1.619-3.452-3.146-5.094-4.803c-4.976-5.025-9.638-10.401-14.928-15.068c-6.429-5.671-13.38-10.748-20.089-16.103
			c-3.371-2.69-6.665-5.479-10.065-8.131c-6.666-5.2-13.78-9.903-19.972-15.611c-6.92-6.379-13.126-13.551-19.432-20.569
			c-2.628-2.927-4.664-6.379-7.054-9.53c-1.567-2.065-3.285-4.017-4.935-6.02c-0.554,0.381-1.109,0.762-1.663,1.143
			c3.509,7.402,6.627,15.023,10.643,22.139c3.505,6.211,7.855,11.977,12.14,17.71c4.114,5.505,8.33,10.993,13.032,15.987
			c5.992,6.365,12.456,12.293,18.836,18.281c4.046,3.796,8.438,7.224,12.445,11.057c4.915,4.701,10.075,9.271,14.244,14.591
			c5.021,6.407,9.515,13.317,13.493,20.425c4.192,7.49,7.453,15.484,7.423,24.37c-0.02,5.616-0.004,11.232-0.004,17.26
			c-1.283,0-2.858,0.402-4.097-0.074c-3.92-1.506-7.576-3.822-11.58-4.955c-11.032-3.122-20.179-9.527-29.353-15.96
			c-2.042-1.433-4.332-2.67-5.978-4.479c-5.361-5.896-10.272-12.208-15.741-17.997c-6.687-7.078-11.337-15.458-16.012-23.817
			c-3.514-6.286-6.802-12.731-9.683-19.327c-3.372-7.719-6.219-15.669-9.245-23.537c-1.672-4.348-3.244-8.735-4.861-13.104
			c-0.532,0.128-1.064,0.256-1.596,0.385c0.045,0.965-0.077,1.975,0.162,2.889c2.647,10.15,5.829,20.188,7.912,30.451
			c2.402,11.833,6.884,22.843,11.986,33.6c4.169,8.789,8.65,17.562,14.137,25.558c5.275,7.686,11.551,14.844,18.244,21.353
			c7.433,7.229,15.755,13.56,23.866,20.062c2.245,1.8,5.119,2.816,7.704,4.193c-0.307,0.634-0.614,1.268-0.921,1.901
			c-4.506-2.126-9.013-4.253-13.812-6.52c-1.02,1.23-2.228,2.72-3.469,4.181c-6.833,8.041-13.663,16.085-20.526,24.101
			c-1.356,1.583-2.205,2.675,0.624,3.778c3.37,1.314,7.035,2.585,9.685,4.893c7.017,6.111,14.729,11.403,20.518,18.997
			c5.994,7.863,11.633,15.763,15.024,25.146c0.866,2.398,2.272,4.832,4.059,6.625c6.263,6.288,12.67,12.448,19.332,18.306
			c1.421,1.25,4.478,1.939,6.197,1.305c4.799-1.768,9.236-4.488,13.923-6.594c3.171-1.425,6.524-2.446,9.797-3.648
			c0.305,0.686,0.608,1.371,0.914,2.057c-7.669,4.166-15.337,8.331-23.555,12.795c4.804,3.899,7.505,10.879,14.892,5.548
			c0.2-0.144,0.614,0.049,0.883-0.045c5.652-1.987,11.287-4.025,16.948-5.985c5.167-1.789,10.362-3.497,15.544-5.24
			c0.162,0.423,0.322,0.845,0.483,1.268c-10.738,7.018-22.299,12.177-35.272,14.991c-0.188,1.072-1.1,2.848-0.558,3.772
			c2.581,4.401,5.557,8.571,7.947,12.155c2.818-0.511,5.168-0.592,7.244-1.388c3.864-1.481,7.5-3.553,11.353-5.07
			c9.87-3.884,19.844-7.504,29.698-11.426c4.181-1.665,8.181-3.791,12.23-5.771c1.072-0.525,2.852-1.292,2.851-1.944
			c-0.003-1.081-1.01-2.344-1.907-3.201c-2.15-2.053-4.482-3.915-7.299-6.332c1.479-0.126,1.935-0.244,2.364-0.183
			c0.568,0.081,1.182,0.192,1.663,0.479c10.379,6.185,21.146,8.384,32.921,4.078c6.07-2.221,10.317-6.945,10.227-13.271
			c-0.047-3.25-0.761-6.492-1.064-8.878c1.746,0.281,4.473,1.644,6.16,0.835c8.359-4.004,15.693-9.682,22.492-15.931
			c2.288-2.104,3.647-5.218,5.432-7.871c-0.385-0.33-0.77-0.66-1.154-0.991c-3.062,0.331-6.149,0.5-9.173,1.039
			c-2.731,0.487-5.357,1.667-8.093,1.973c-1.491,0.167-3.933-0.374-4.531-1.411c-2.136-3.7-4.243-3.841-7.293-1.196
			c-1.608,1.395-3.579,2.372-5.386,3.538c-0.239-0.361-0.479-0.723-0.717-1.084c1.793-1.527,3.797-2.877,5.292-4.655
			c0.752-0.896,1.262-3.246,0.726-3.783c-5.853-5.851-8.626-7.657-16.973-0.628c1.457-2.819,2.335-4.519,3.315-6.414
			c-8.561-4.114-17.314-2.614-25.963-2.1c-5.291,0.314-9.874,2.503-13.824,5.951c-2.489,2.173-4.468,5.151-7.266,6.711
			c-7.369,4.112-14.938,7.927-22.658,11.335c-7.736,3.415-15.729,6.257-23.663,9.211c-2.307,0.859-4.765,1.415-7.201,1.793
			c-2.47,0.384-4.999,0.377-7.504,0.542c37.442-13.198,70.65-31.877,94.46-65.494c-1.824-0.102-2.85-0.278-3.854-0.196
			c-6.769,0.553-13.527,1.551-20.303,1.666c-12.158,0.205-22.009-4.455-28.573-15.104c-4.386-7.115-7.032-14.722-6.242-24.092
			c-3.726,1.368-6.727,2.719-9.864,3.554c-3.21,0.854-6.554,1.206-9.84,1.776c-0.107-0.431-0.217-0.861-0.325-1.292
			c4.264-1.692,8.527-3.384,13.509-5.36c-5.132-0.912-9.209-1.636-13.286-2.36c0.074-0.5,0.148-1,0.223-1.5
			c6.409,0.519,12.817,1.039,18.49,1.498c1.386-3.973,2.323-8.14,4.253-11.78c1.949-3.677,4.883-6.832,7.591-10.494
			c-5.526-3.02-10.746-0.084-16.766,0.732c1.945-1.843,3.196-3.914,4.963-4.548c7.857-2.825,15.975-2.972,23.739,0.098
			c7.021,2.776,13.794,6.219,20.552,9.617c2.903,1.46,5.433,3.646,8.233,5.332c4.615,2.778,9.279,5.48,13.985,8.101
			c5.51,3.067,10.963,6.287,16.688,8.896c3.036,1.383,6.598,1.614,10.02,2.386c0.423-3.568,0.743-6.196,1.045-8.827
			c1.065-9.302,0.56-19.049-5.459-25.994c-5.019-5.791-6.338-11.979-7.741-18.623c-1.558-7.375-5.284-13.667-10.411-18.822
			c-3.465-3.482-8.311-5.559-12.363-8.504c-1.243-0.903-2.652-2.569-2.711-3.94c-0.302-6.923-2.386-13.07-6.851-18.368
			c-2.481-2.945-5.055-5.813-7.754-8.908c5.825,1.919,10.65,4.944,12.934,10.543c2.223,5.449,3.656,11.217,5.591,16.792
			c0.409,1.182,1.497,3.04,2.26,3.034c3.951-0.03,6.254,2.433,9.034,4.646c9.233,7.352,13.794,16.889,14.831,28.488
			c0.364,4.089,1.117,7.783,5.101,10.959c3.475,2.769,6.129,7.698,7.177,12.138c2.015,8.537,0.807,17.183-2.579,25.425
			c-0.312,0.759,0.334,1.911,0.535,2.88c1.054-0.512,2.691-0.761,3.061-1.581c1.734-3.848,3.022-7.893,4.654-11.79
			c1.749-4.176,7.9-6.769,12.805-5.269c-8.57,3.344-12.935,9.713-14.897,18.867c8.482,0,16.614,0.582,24.625-0.163
			c8.027-0.747,15.93-2.816,24.495-4.42c-5.033-11.42-14.814-18.312-26.222-24.35c1.358-0.458,1.744-0.65,2.149-0.707
			c0.438-0.061,0.925-0.095,1.339,0.031c5.916,1.788,11.162,4.914,15.198,9.464c3.248,3.662,6.498,3.905,10.52,2.149
			c7.903-3.449,15.952-6.598,23.691-10.381c11.223-5.486,22.677-10.458,35.114-11.835c6.875-0.761,13.977,0.52,21.606,0.912
			c-2.731,4.179-5.1,3.465-8.134,2.391c-2.375-0.841-5.279-0.293-7.938-0.168c-0.888,0.042-1.715,0.864-2.623,1.023
			c-7.206,1.265-14.446,2.353-21.613,3.806c-0.858,0.174-1.964,2.252-1.891,3.377c0.396,6.016,1.133,12.009,1.746,18.01
			c0.122,1.2,0.223,2.402,0.44,4.746c12.334-17.822,27.669-28.225,49.199-27.982c-2.004-1.541-4.787-1.736-5.304-2.921
			c-1.747-4.008-5.204-4.691-8.643-6.058c-11.089-4.408-22.554-3.171-33.89-2.29c-9.802,0.762-19.512,2.669-29.281,3.915
			c-6.149,0.784-12.388,0.969-18.493,1.984c-7.58,1.26-14.822,0.547-22.131-1.646c-1.741-0.522-4.018,0.74-6.564,1.293
			c-3.493-7.267-7.483-15.568-11.475-23.87c-0.411,0.05-0.822,0.101-1.232,0.151c-0.675,5.877-1.35,11.755-2.024,17.634
			c-0.489-0.064-0.979-0.127-1.469-0.191c0-2.095-0.159-4.205,0.025-6.284c1.137-12.767-2.209-24.118-10.791-33.711
			c-4.566-5.105-9.372-10.003-14.192-14.875c-5.905-5.969-11.435-12.473-18.06-17.519c-6.362-4.846-13.615-8.873-21.035-11.883
			c-7.475-3.033-15.529-5.227-23.526-6.249c-11.302-1.444-22.124,2.073-32.652,6.003c-1.644,0.613-3.021,1.904-4.584,2.771
			c-5.716,3.172-11.96,5.646-17.076,9.587c-8.385,6.461-16.121,13.778-23.94,20.943c-1.549,1.419-2.902,3.699-3.139,5.723
			c-0.249,2.128,6.205,5.295,8.693,5.203c4.815-0.179,9.678-0.305,14.459,0.164c3.291,0.324,6.72,1.212,9.659,2.694
			c4.711,2.376,9.207,5.259,13.538,8.291c4.274,2.993,8.372,6.281,12.269,9.754c1.854,1.654,3.061,4.036,4.725,6.313
			C518.954,162.191,510.01,164.645,501.557,183.8z M564.316,649.588c-0.976,0.646-1.467,0.796-1.646,1.118
			c-3.397,6.079-6.723,12.198-10.143,18.263c-1.32,2.341-2.753,4.632-4.34,6.795c-0.354,0.482-1.708,0.676-2.374,0.418
			c-8.924-3.459-17.782-7.083-26.709-10.535c-6.754-2.613-13.517-5.248-20.421-7.405c-1.829-0.571-5.443-0.125-6.12,1.062
			c-5.067,8.894-9.276,18.279-14.39,27.145c-6.458,11.193-13.486,22.06-20.345,33.02c-1.186,1.894-2.819,3.502-4.131,5.323
			c-6.583,9.145-12.771,18.603-19.812,27.377c-4.805,5.99-10.665,11.163-16.264,16.479c-6.907,6.559-14.047,12.873-21.046,19.335
			c-0.966,0.893-1.704,2.031-2.701,3.243c5.953,0.502,11.123,1.074,16.309,1.351c12.845,0.682,25.697,1.208,38.543,1.868
			c1.051,0.054,2.058,0.871,3.112,0.949c2.351,0.173,4.723,0.179,7.079,0.084c0.732-0.03,1.497-0.966,2.152-0.867
			c2.604,0.398,5.189,1.587,7.749,1.501c11.296-0.383,22.577-1.172,33.87-1.676c4.855-0.217,5.629-1.218,4.729-5.983
			c-0.764-4.042-1.412-8.158-1.546-12.26c-0.63-19.35,0.021-38.64,3.576-57.736c0.423-2.271,1.015-4.511,1.526-6.764
			c0.37,0.051,0.739,0.102,1.108,0.153c0,1.577,0,3.152,0,4.729c0,19.192,0,38.385,0,57.577c0,8.064,0,8.063,8.019,7.658
			c0.598-0.03,1.199-0.006,1.799-0.006c11.246,0,22.49-0.005,33.736,0.008c1.192,0.001,2.525-0.22,3.553,0.223
			c4.397,1.895,5.176-0.243,5.16-4.062c-0.073-19.192-0.033-38.384-0.033-57.577C564.316,697.009,564.316,673.622,564.316,649.588z
			 M658.809,533.335c2.476-2.533,4.79-5.678,7.812-7.833c6.187-4.414,8.863-11.236,12.715-17.245
			c0.542-0.846-0.143-2.554-0.412-3.83c-1.021-4.833-9.38-7.28-13.742-5.817c-1.921,0.644-4.002,0.826-5.895,1.531
			c-2.128,0.793-5.052,0.392-5.079,4.285c-0.081,11.534-0.48,23.066-0.848,34.598c-0.122,3.838-0.966,7.696-0.71,11.494
			c0.594,8.834,1.331,17.685,2.606,26.442c1.807,12.426,3.777,24.852,6.396,37.126c1.65,7.738,4.575,15.208,7.025,22.768
			c0.322,0.991,1.096,2.354,1.882,2.526c0.736,0.162,2.011-0.851,2.621-1.666c1.388-1.851,2.386-3.992,3.77-5.845
			c3.979-5.328,8.122-10.535,12.094-15.868c1.464-1.964,2.795-4.065,3.899-6.25c2.408-4.767,4.715-9.588,6.909-14.456
			c2.616-5.806,5.259-11.612,7.54-17.554c1.968-5.128,3.438-10.445,5.142-15.675c1.887-5.799,4.105-11.513,5.59-17.411
			c1.354-5.388,1.927-10.974,2.839-16.472c1.485-8.965,4.056-17.907,4.241-26.898c0.497-24.137,1.831-48.424-5.609-72.907
			c-4.993,5.774-9.157,11.67-9.635,18.393c-1.803-0.801-3.706-1.678-5.635-2.496c-2.626-1.113-5.369-1.995-7.88-3.322
			c-2.213-1.169-4.178-2.812-6.252-4.246c-0.382,0.28-0.765,0.56-1.148,0.839c0.581,1.67,0.718,3.759,1.825,4.935
			c3.843,4.078,7.89,7.996,12.157,11.624c1.253,1.065,3.496,0.964,6.084,1.591c-0.116-0.723,0.076-0.155,0.04,0.397
			c-0.056,0.874-0.432,1.749-0.374,2.604c0.092,1.369-0.063,3.249,0.739,3.996c5.555,5.169,9.52,11.396,12.332,18.313
			c0.706,1.738,0.593,4.469-0.317,6.079c-2.694,4.763-6.296,9.018-8.937,13.805c-2.689,4.874-4.885,10.059-6.876,15.27
			c-1.661,4.344-1.964,9.344-4.199,13.303c-4.283,7.583-3.909,16.042-5.749,24.056c-1.307,5.689-1.797,11.565-2.863,18.801
			C683.083,557.681,672.878,544.309,658.809,533.335z M257.506,293.471c0,0.723-0.179,1.286,0.026,1.584
			c4.688,6.797,8.956,13.779,10.916,21.951c1.932,8.053,4.35,16.005,5.925,24.124c1.177,6.062,1.642,12.306,1.91,18.491
			c0.472,10.878,0.533,21.774,0.818,32.661c0.029,1.104,0.414,2.199,0.634,3.298c0.878-0.862,2.238-1.581,2.542-2.613
			c0.868-2.935,0.882-6.163,1.987-8.98c4.875-12.431,8.767-25.284,16.32-36.569c3.967-5.925,6.414-13.018,10.981-18.357
			c7.448-8.708,15.771-16.748,24.327-24.395c3.98-3.557,9.174-6.004,14.171-8.119c9.26-3.92,18.911-5.222,29.144-4.571
			c9.316,0.592,17.738,2.95,25.559,7.667c7.544,4.549,14.944,9.35,22.251,14.272c2.802,1.888,5.424,4.191,7.69,6.7
			c5.031,5.569,9.947,11.262,14.602,17.148c3.57,4.514,6.715,9.369,9.961,14.132c2.156,3.162,4.157,6.43,6.745,10.457
			c0.183-1.839,0.571-2.79,0.298-3.476c-2.303-5.779-4.177-11.824-7.237-17.184c-5.17-9.053-11.057-17.702-16.779-26.43
			c-1.244-1.899-3.019-3.466-4.634-5.104c-4.742-4.809-9.098-10.139-14.42-14.198c-5.083-3.876-11.767-5.702-16.702-9.713
			c-6.45-5.243-13.991-6.564-21.493-8.457c-2.973-0.75-6.046-1.096-9.065-1.668c-4.909-0.931-9.781-2.361-14.728-2.691
			c-3.435-0.229-6.969,1.039-10.459,1.633c-4.755,0.811-9.764,0.933-14.211,2.577c-7.731,2.859-15.601,5.391-23.264,8.523
			c-9.363,3.828-19.779,6.193-30.398,6.104C273.201,292.202,265.472,293.028,257.506,293.471z M688.866,558.167
			c0.577-2.395,1.027-4.191,1.44-5.996c2.732-11.971,4.737-24.173,8.463-35.825c2.153-6.737,7.307-12.47,10.618-18.906
			c1.048-2.035,1.616-6.221,0.505-7.149c-6.757-5.643-13.443-11.837-23.179-11.828c-13.521,0.013-26.823,0.688-39.737,5.745
			c-7.98,3.127-16.597,4.632-24.93,6.858c-7.145,1.909-13.579,3.912-17.878,11.394c-5.254,9.141-12.103,17.462-18.953,25.552
			c-4.34,5.126-5.893,9.7-3.011,16.072c2.787,6.163,4.602,12.762,6.913,19.144c2.154,5.95,4.409,11.863,6.604,17.799
			c2.129,5.758,4.308,11.499,6.332,17.295c1.767,5.057,3.772,10.086,4.916,15.294c1.926,8.759,8.227,16.054,5.397,26.545
			c-3.763,13.952-6.413,28.215-11.23,41.913c-1.356,3.856-2.07,7.964-3.672,11.702c-5.609,13.083-14.109,25.011-15.752,39.662
			c-0.519,4.63-0.865,9.278-1.292,13.917c3.371-6.581,5.672-13.225,8.179-19.789c3.834-10.042,7.506-20.162,11.803-30.006
			c6.052-13.869,13.428-27.057,21.561-39.845c1.477-2.32,1.695-5.963,1.317-8.84c-1.011-7.702-2.729-15.308-4.042-22.973
			c-2.775-16.198-4.785-32.564-8.432-48.561c-2.608-11.444-7.729-22.297-10.923-33.641c-0.839-2.979-3.918-6.346-1.132-9.942
			c2.014-2.601,3.864-5.368,6.147-7.709c4.31-4.42,8.485-9.129,13.445-12.71c5.304-3.831,11.404-6.579,17.242-9.636
			c2.688-1.407,5.536-2.539,8.387-3.593c5.795-2.144,11.52-4.697,17.508-6.027c4.294-0.954,8.998-0.517,13.462-0.09
			c3.018,0.288,5.911,2.271,8.901,2.383c6.775,0.253,12.09,3.83,8.709,12.774c-4.239,11.216-8.144,22.56-12.024,33.906
			c-0.516,1.507-0.696,3.786,0.089,4.955C682.894,551.399,685.739,554.403,688.866,558.167z M608.654,477.608
			c-0.102-0.053-0.905-0.778-1.783-0.884c-8.094-0.976-14.181-5.875-20.141-10.683c-3.014-2.432-4.15-2.454-5.538,1.181
			c-2.479,6.495-5.376,12.831-7.866,19.322c-2.275,5.931-4.665,11.871-6.249,18.003c-2.267,8.775-3.977,17.704-5.688,26.613
			c-2.157,11.235-4.786,22.444-5.925,33.795c-1.586,15.803-2.051,31.722-2.84,47.598c-0.261,5.236,0.038,10.5-0.078,15.747
			c-0.053,2.341-0.756,4.677-0.726,7.01c0.085,6.688,0.4,13.372,0.61,20.058c0.039,1.229,0.006,2.462,0.006,3.693
			c0.408,0.067,0.816,0.134,1.225,0.202c1.451-3.404,2.966-6.783,4.342-10.219c3.766-9.407,7.532-18.816,11.185-28.268
			c2.97-7.684,5.912-15.383,8.608-23.165c1.863-5.373,2.951-11.028,4.996-16.32c2.103-5.44,3.352-10.504-0.455-15.697
			c-0.919-1.252-1.256-2.938-1.821-4.44c-3.083-8.205-5.22-16.605-6.251-25.356c-0.281-2.382-0.111-3.866,1.533-5.31
			c9.352-8.209,15.762-18.635,22.027-29.174c1.377-2.315,3.122-4.459,4.185-6.905C604.339,489.039,606.338,483.527,608.654,477.608z
			 M575.144,835.204c6.041,0,10.583-0.474,14.98,0.123c5.142,0.696,5.677,0.643,5.69-4.62c0.022-9.299-0.513-18.638,0.175-27.888
			c0.972-13.07,2.761-26.084,4.364-39.103c0.755-6.124,1.681-12.245,2.913-18.288c1.156-5.672,2.735-11.263,4.282-16.846
			c1.588-5.729,3.197-11.463,5.102-17.091c1.995-5.897,4.174-11.746,6.595-17.481c3.755-8.898,7.553-17.793,11.771-26.477
			c2.895-5.955,6.61-11.506,9.773-17.338c0.624-1.15,0.87-2.902,0.491-4.131c-1.578-5.101-3.493-10.096-5.226-15.15
			c-2.854-8.329-6.288-16.526-8.318-25.054c-2.068-8.694-2.649-17.735-4.074-26.594c-0.454-2.824-1.437-5.578-2.326-8.314
			c-2.475-7.608-5.348-15.104-7.451-22.81c-1.789-6.559-2.729-13.349-4.104-20.338c-1.415,1.118-2.674,1.836-3.56,2.873
			c-1.755,2.058-4.319,4.145-4.656,6.492c-0.343,2.393,1.562,5.121,2.528,7.686c1.731,4.594,3.772,9.091,5.184,13.78
			c2.059,6.841,3.784,13.791,5.447,20.743c1.622,6.786,3.236,13.592,4.403,20.466c1.479,8.698,2.429,17.485,3.751,26.212
			c0.68,4.483,1.825,8.896,2.496,13.38c1.204,8.033,5.724,16.426-2.191,23.638c-0.198,0.181-0.222,0.54-0.357,0.801
			c-3.268,6.287-6.516,12.583-9.82,18.851c-2.667,5.059-5.622,9.979-8.062,15.145c-3.685,7.801-7.053,15.754-10.504,23.664
			c-0.58,1.33-0.907,2.772-1.343,4.165c-1.89,6.03-3.879,12.034-5.639,18.102c-2.415,8.333-5.092,16.626-6.843,25.104
			c-1.545,7.48-2.267,15.17-2.837,22.806C576.719,805.914,576.034,820.146,575.144,835.204z M605.562,419.585
			c-2.511,4.247-5.017,8.038-7.071,12.06c-3.688,7.22-6.949,14.661-10.686,21.855c-2.968,5.717-2.519,7.649,3.374,10.551
			c1.165,0.574,2.292,1.225,3.459,1.793c7.909,3.854,15.533,8.58,24.984,7.311c2.503-0.336,5.227,0.473,7.611-0.152
			c6.348-1.664,12.895-3.15,18.729-6.002c4.446-2.173,8.385-5.927,11.694-9.722c2.819-3.231,5.76-7.374,6.218-11.39
			c0.567-4.975,2.63-7.199,6.742-8.901c1.127-0.468,2.393-2.252,2.41-3.448c0.054-3.972-0.53-7.948-0.683-11.93
			c-0.144-3.793-5.475-9.074-9.174-8.776c-0.571,0.046-1.332,0.535-1.607,1.037c-2.476,4.512-4.992,9.01-7.227,13.643
			c-1.378,2.855-3.269,2.475-4.416,0.511c-3.465-5.934-6.517-12.109-10.043-18.785c-2.357,1.412-5.432,3.889-8.941,5.184
			c-3.623,1.336-7.671,1.522-11.605,2.225c-0.494,5.101-0.962,9.932-1.456,15.042C611.458,430.247,609.605,424.283,605.562,419.585z
			 M477.991,381.909c0.333-0.125,0.666-0.249,1-0.373c-0.26-2.283-0.425-4.581-0.801-6.844c-0.622-3.746-1.35-7.476-2.087-11.202
			c-1.108-5.595-1.965-11.262-3.47-16.75c-2.182-7.954-4.998-15.731-7.267-23.663c-2.825-9.879-7.65-18.732-13.099-27.345
			c-6.657-10.524-17.627-16.051-27.034-23.31c-5.583-4.307-12.021-7.69-18.454-10.667c-9.233-4.273-18.649-8.288-28.292-11.494
			c-8.657-2.878-17.71-4.587-26.622-6.67c-4.271-0.998-8.593-1.915-12.944-2.345c-1.401-0.139-3.712,1.02-4.323,2.232
			c-2.066,4.099-3.442,8.54-5.302,12.752c-1.641,3.714-3.458,7.362-5.416,10.918c-1.905,3.462-4.087,6.772-6.147,10.148
			c2.601,0.271,4.616-0.115,6.347-1.036c1.844-0.981,3.262-3.207,5.139-3.606c8.595-1.83,17.24-4.11,25.951-4.541
			c13.283-0.658,26.4,1.136,38.724,6.93c7.493,3.522,15.641,5.432,21.94,11.594c5.056,4.946,11.509,8.438,16.793,13.186
			c4.415,3.967,8.056,8.8,11.999,13.285c6.14,6.985,10.734,14.944,14.109,23.552c3.001,7.655,6.029,15.351,8.202,23.261
			c1.766,6.425,3.212,12.759,8.013,17.752C476.143,378.914,476.986,380.487,477.991,381.909z M581.439,603.023
			c-2.957,8.677-5.097,16.7-8.418,24.201c-3.205,7.238-4.685,14.505-4.267,22.312c0.17,3.16,0.06,6.337,0.024,9.504
			c-0.292,27.062-0.631,54.124-0.879,81.187c-0.103,11.133-0.011,22.268-0.025,33.402c-0.001,1.341,0.281,2.875-0.256,3.985
			c-1.535,3.167-0.294,5.107,2.334,6.983c0.893-1.296,2.221-2.36,2.359-3.562c1.064-9.231,1.991-18.481,2.77-27.743
			c0.486-5.77,0.456-11.585,1.001-17.348c0.455-4.809,0.483-9.965,2.32-14.278c5.225-12.275,11.3-24.187,16.945-36.286
			c0.348-0.746,0-1.914-0.251-2.824c-1.218-4.438-2.762-8.8-3.72-13.289c-1.251-5.865-2.108-11.818-3.051-17.746
			c-1.149-7.237-2.441-14.464-3.249-21.741c-0.882-7.942-1.243-15.942-1.945-23.908
			C583.061,605.046,582.217,604.287,581.439,603.023z M664.964,639.051c0.295-0.269,0.592-0.537,0.887-0.807
			c-18.312-42.904-20.703-87.756-15.961-134.65c-3.335,1.547-7.009,2.037-7.918,3.886c-3.571,7.271-6.868,14.797-9.128,22.559
			c-2.317,7.952-3.907,16.234-4.708,24.479c-0.892,9.171-1.294,18.528-0.51,27.686c0.804,9.388,3.246,18.642,5.105,27.927
			c0.329,1.646,0.922,3.575,2.069,4.659c3.831,3.625,7.926,6.977,12.002,10.334c4.024,3.315,8.122,6.545,12.241,9.743
			C660.951,636.346,662.986,637.661,664.964,639.051z M636.258,292.039c4.001-0.578,7.602-1.567,11.188-1.517
			c7.021,0.098,7.018,0.338,7.782-6.392c0.05-0.442,0.014-0.935,0.2-1.314c4.225-8.614-0.043-16.578-1.191-23.678
			c-4.171-1.506-7.383-2.771-10.67-3.795c-1.098-0.342-2.523-0.414-3.561-0.005c-2.34,0.921-4.48,2.336-6.794,3.337
			c-4.255,1.839-8.341-0.258-9.495-4.908c-0.792-3.188-2.793-4.875-5.8-3.788c-6.322,2.286-9.746-1.505-12.712-5.781
			c-1.855-2.675-3.743-2.804-5.724-1.009c-2.054,1.862-4.315,4.01-5.249,6.498c-3.157,8.406-7.76,15.709-14.126,22.036
			c-1.36,1.351-1.759,3.669-2.272,4.812c8.199-0.62,15.992-1.208,24.344-1.84c0-2.633,0-6.238,0-10.032
			c4.154,1.763,1.877,5.304,2.665,7.884c0.554,1.811,1.257,4.366,2.615,4.971c2.641,1.178,5.789,1.219,9.316,1.833
			c0-5.908,0-11.733,0-17.558c0.401-0.023,0.804-0.046,1.206-0.069c0.4,3.842,1.222,7.698,1.098,11.523
			c-0.156,4.83,0.254,9.025,4.432,12.312c2.822,2.219,5.168,5.043,7.727,7.596c0.432-0.167,0.864-0.333,1.296-0.5
			c0.892-7.592,1.783-15.184,2.675-22.776c0.351,0.007,0.7,0.015,1.051,0.022C636.258,277.224,636.258,284.546,636.258,292.039z
			 M545.724,370.532c-1.899,0-2.984-0.195-3.972,0.032c-6.115,1.404-12.146,3.268-18.321,4.294
			c-12.459,2.073-24.999,3.667-37.481,5.606c-0.898,0.14-2.438,1.787-2.281,2.197c1.322,3.448,2.229,7.494,4.665,9.992
			c6.53,6.7,12.822,13.839,21.384,18.197c1.102,0.56,2.333,0.864,3.684,1.352c0.562-1.835,1.273-3.207,1.352-4.613
			c0.157-2.843,1.863-3.199,3.999-2.752c3.665,0.765,7.379,1.456,10.913,2.65c5.31,1.794,10.481,3.995,16.06,6.158
			C545.724,399.715,545.724,385.368,545.724,370.532z M391.296,197.926c-13.347,5.97-25.767,0.265-38.128-3.882
			c1.184,4.823,2.102,9.06,3.323,13.207c0.334,1.138,1.376,2.412,2.434,2.935c5.758,2.843,11.392,6.341,17.506,7.955
			c8.028,2.119,16.394,4.01,24.77,0.415c4.29-1.841,8.875-2.984,13.264-4.611c1.28-0.474,2.343-1.531,3.11-2.052
			c-2.158-2.26-3.708-4.08-5.457-5.68c-8.478-7.756-13.906-17.727-19.457-27.5c-1.42-2.501-2.759-2.897-4.742-2.581
			c-5.244,0.838-9.626-1.379-13.788-3.87c-2.069-1.239-3.487-3.564-5.629-5.858C367.638,176.823,375.146,191.896,391.296,197.926z
			 M650.682,421.877c0.52,0.01,1.04,0.02,1.559,0.029c0.961-1.446,1.999-2.847,2.865-4.346c1.587-2.743,3.064-5.548,4.603-8.319
			c1.026-1.849,1.71-2.667,3.905-0.633c2.047,1.899,5.164,2.644,7.123,3.572c1.844-2.473,2.923-5.531,4.848-6.219
			c7.763-2.773,12.78-8.976,18.713-14.002c0.736-0.624,0.697-3.275,0.001-4.288c-3.451-5.014-7.216-9.814-10.927-14.646
			c-2.105-2.74-4.321-5.397-6.428-8.019c-8.288,5.971-16.317,11.637-24.203,17.496c-3.168,2.354-7.399,3.929-6.703,9.407
			c0.51,4.007-0.404,8.218,0.271,12.174C647.331,410.087,649.182,415.952,650.682,421.877z M722.729,405.375
			c-2.85-1.767-5.485-3.673-8.355-5.114c-4.387-2.204-9.073-3.837-13.354-6.215c-2.005-1.114-2.511-1.112-4.151,0.657
			c-3.642,3.927-7.457,8.044-12.01,10.692c-6.926,4.03-9.623,9.669-8.899,17.122c0.608,6.271,1.812,12.489,2.915,18.702
			c0.305,1.713,1.192,3.322,2.134,5.838c3.996-6.221,4.244-13.627,10.526-17.214c1.492,2.179,2.831,4.139,4.176,6.095
			c1.989,2.894,9.358,4.562,10.955,2.132c3.522-5.362,6.842-10.906,9.671-16.658C718.863,416.275,720.619,410.76,722.729,405.375z
			 M623.437,326.561c5.417-2.557,10.164-5.065,15.118-7.061c4.675-1.883,9.597-3.143,14.353-4.839
			c3.568-1.272,7.264-2.426,10.507-4.313c4.119-2.396,7.965-5.322,11.697-8.307c4.561-3.647,9.611-7.022,13.148-11.535
			c6.277-8.008,5.288-19.519-1.415-27.499c-0.49-0.583-2.001-0.804-2.821-0.534c-4.199,1.383-8.241,3.327-12.508,4.403
			c-3.779,0.953-7.782,1.024-11.992,1.521c4.073,10.719,1.611,20.428-4.471,29.277c-2.522,3.671-6.514,6.307-9.237,9.871
			c-4.843,6.336-12.366,8.09-18.946,11.033C622.916,320.344,622.305,321.822,623.437,326.561z M477.985,218.167
			c-0.037,0.065,0.662-0.587,0.628-1.198c-0.478-8.551-0.192-17.273-1.891-25.585c-1.268-6.198-4.839-12.025-7.94-17.714
			c-2.158-3.958-4.771-7.938-8.063-10.942c-4.538-4.145-12.68-1.871-15.025,6.171c-1.502,5.151-1.484,10.752-2.067,16.161
			c-0.727,6.746-4.134,14.284,5.159,18.207c0.127,0.054,0.195,0.237,0.318,0.312c3.77,2.253,7.423,4.741,11.344,6.692
			C465.93,212.995,471.61,215.321,477.985,218.167z M615.251,478.471c-0.962,2.864-1.879,5.43-2.675,8.033
			c-0.385,1.259-0.54,2.588-0.8,3.885c1.35-0.077,2.812,0.159,4.028-0.283c7.906-2.874,15.613-6.409,23.674-8.723
			c7.702-2.212,15.735-3.315,23.662-4.683c3.774-0.651,7.689-0.507,11.451-1.205c8.084-1.5,15.888-0.126,23.539,2.126
			c5.915,1.742,10.395,5.771,14.132,10.625c2.105,2.732,4.485,2.693,5.734-0.536c0.645-1.668,0.229-4.312-0.724-5.907
			c-1.911-3.205-4.991-5.74-6.751-9.004c-4.377-8.115-10.618-13.427-19.803-15.085c-0.677-0.123-1.258-0.711-1.925-0.98
			c-6.598-2.677-13.518-3.332-20.433-2.222c-2.046,0.328-3.874,2.663-5.583,4.307c-5.11,4.912-9.44,11.031-15.328,14.633
			c-6.957,4.255-15.37,5.557-23.789,5.047C620.839,478.327,617.998,478.471,615.251,478.471z M563.252,415.706
			c2.792-15.526,10.672-28.223,19.492-38.938c-3.771-6.175-6.868-11.529-10.309-16.653c-0.74-1.103-3.094-2.278-4.069-1.877
			c-5.646,2.323-11.176,4.966-16.582,7.812c-2.011,1.059-3.443,2.965-2.675,5.699c2.833,10.081,1.971,20.269,0.839,30.469
			c-0.448,4.034-0.716,8.087-1.062,12.103C554.037,414.817,558.433,415.241,563.252,415.706z M406.751,111.115
			c-2.101,5.165-4.832,10.083-6.083,15.353c-2.117,8.916-4.766,18.1,2.146,26.521c2.296,2.798,3.696,6.311,5.753,9.329
			c2.964,4.35,6.153,8.545,9.821,13.599c1.054-6.583,1.987-12.12,2.816-17.672c1.139-7.626,2.243-15.227,8.477-20.792
			c2.033-1.815,2.118-3.467-0.203-5.52C422.015,125.327,414.761,118.485,406.751,111.115z M367.958,231.115
			c-0.175,0.375-0.35,0.75-0.524,1.126c2.029,2.566,3.911,5.27,6.132,7.658c1.884,2.024,3.895,4.265,6.323,5.374
			c3.922,1.792,8.354,2.442,12.35,4.103c5.493,2.285,10.678,5.315,16.193,7.533c3.295,1.325,7.007,2.819,9.498-2.058
			c1.269-2.484,3.544-4.496,5.525-6.568c5.179-5.417,10.512-10.689,15.597-16.191c0.624-0.676,0.535-2.602,0.058-3.605
			c-2.208-4.635-10.213-5.29-13.636-1.412c-1.486,1.684-3.254,3.43-5.262,4.286c-5.596,2.386-11.23,5.21-17.131,6.229
			c-9.052,1.563-18.222,1.103-26.776-3.282C373.668,232.957,370.748,232.163,367.958,231.115z M405.704,109.084
			c-14.885-17.963-26.739-37.427-31.082-60.811c-4.896,18.904,9.828,80.454,21.552,90.264
			C394.694,126.859,398.794,117.448,405.704,109.084z M439.218,197.184c0.951-9.33,1.482-17.91,2.793-26.369
			c1.098-7.073,5.103-12.256,13.003-14.449c-0.979-1.292-1.663-2.558-2.672-3.462c-4.124-3.697-8.534-7.092-12.481-10.963
			c-3.921-3.844-6.625-3.59-9.493,1.182c-5.179,8.621-6.098,18.498-8.086,27.979c-1.048,4.996-1.243,10.714,4.343,14.256
			c1.644,1.042,2.969,2.598,4.402,3.958C433.709,191.863,436.364,194.439,439.218,197.184z M589.174,582.778
			c-3.349,6.264-4.881,11.685-3.96,17.703c0.555,3.626,1.12,7.253,1.555,10.896c0.697,5.862,1.271,11.738,1.937,17.604
			c0.281,2.488,0.478,5.006,1.02,7.441c2.564,11.537,5.211,23.055,7.903,34.562c0.246,1.051,1.021,1.979,1.919,3.651
			c2.181-11.277,4.169-21.474,6.116-31.678c0.656-3.44,2.206-7.09,1.59-10.307c-1.049-5.477-3.407-10.715-5.36-16.001
			c-2.86-7.739-5.858-15.429-8.776-23.146C591.904,590.301,590.751,587.076,589.174,582.778z M614.026,426.024
			c0.716-2.073,1.175-3.308,1.569-4.563c1.093-3.473,1.161-8.2,3.514-10.083c2.37-1.896,6.999-0.966,10.639-1.281
			c5.58-0.482,11.196-5.291,11.922-10.309c0.674-4.651,0.802-9.432,1.976-13.946c1.159-4.459-1.49-6.538-3.833-9.321
			c-5.438,7.935-12.921,12.816-20.83,16.97c-3.637,1.911-7.815,2.884-11.838,3.939c-3.82,1.001-5.36,3.715-3.655,7.275
			c0.374,0.781,1.198,1.506,1.216,2.27C604.87,414.542,609.616,419.765,614.026,426.024z M483.257,377.723
			c9.777-2.132,18.76-4.091,28.43-6.2c-8.131-17.783-23.037-28.974-38.326-40.062C477.708,346.655,484.013,361.299,483.257,377.723z
			 M635.023,785.661c-7.418-14.837-14.784-29.576-22.152-44.316c-0.395-0.043-0.788-0.086-1.184-0.128
			c-4.467,14.202-8.137,28.541-6.591,44.444C614.892,785.661,624.507,785.661,635.023,785.661z M694.252,238.176
			c12.355-1.285,19.664-9.116,26.089-17.902c4.808-6.574,4.375-26.569-0.464-31.758c-3.396,1.814-6.712,4.265-10.427,5.351
			c-2.896,0.847-3.074,2.25-2.929,4.463c0.281,4.275,0.859,8.556,0.773,12.824c-0.073,3.612-0.829,7.196-4.324,9.46
			c-3.012,1.952-6.006,3.963-8.797,6.209c-1.184,0.954-2.692,2.689-2.538,3.873C691.963,233.21,693.284,235.595,694.252,238.176z
			 M359.066,213.04c2.457,5.142,3.545,10.853,6.996,13.737c3.966,3.315,9.891,5.024,15.205,5.811
			c7.673,1.136,15.566,1.137,23.358,1.034c9.941-0.131,16.864-6.424,23.086-11.516c-1.426-2.046-2.565-3.763-3.79-5.416
			c-1.757-2.371-3.852-3.456-6.528-1.335c-4.592,3.64-9.899,5.427-15.536,6.88c-7.061,1.821-14.195,2.025-20.918,0.111
			C373.878,220.338,367.3,216.634,359.066,213.04z M478.631,134.339c-0.467,0.512-0.934,1.024-1.399,1.536
			c3.519,3.682,7.322,7.138,10.479,11.108c3.197,4.02,6.13,8.354,8.484,12.908c2.365,4.576,3.873,9.594,6.14,15.398
			c4.018-10.534,11.886-15.089,22.36-17.986c-5.099-4.346-9.404-8.808-14.451-12.146
			C500.686,138.836,489.271,137.662,478.631,134.339z M595.061,207.04c-2.21-4.617-6.009-5.428-9.543-7.023
			c-8.607-3.884-16.823-8.661-25.516-12.319c-3.67-1.545-8.221-4.641-12.238-0.792c-5.498,5.265-8.646,11.979-10.826,20.718
			c5.082-1.267,9.268-2.66,13.563-3.291c5.12-0.751,10.336-0.844,15.51-1.23c4.569-0.341,8.667,1.015,13.012,2.434
			C583.743,207.076,589.127,206.582,595.061,207.04z M610.344,230.873c-26.172-2.698-50.796-5.17-72.492-20.097
			c-0.552,3.18-2.185,7.062,1.102,9.495c5.068,3.753,10.553,7.156,16.301,9.716c4.731,2.106,10.071,2.926,15.199,4.044
			c12.047,2.628,24.047,2.48,35.9-1.175C607.426,232.525,608.395,231.855,610.344,230.873z M540.143,223.816
			c0.978,8.892,16.352,22.674,25.84,23.243c12.831,0.769,25.862,1.164,36.019-9.111C580.213,239.188,558.918,239.05,540.143,223.816
			z M632.941,511.219c-0.326-0.211-0.652-0.422-0.979-0.633c-1.133,0.725-2.303,1.395-3.39,2.183
			c-3.388,2.453-6.453,5.607-10.189,7.256c-4.105,1.812-5.182,4.384-4.586,8.286c0.666,4.347,1.385,8.687,2.162,13.015
			c0.722,4.017,1.343,8.07,2.391,12.006c1.099,4.121,2.655,8.12,4.012,12.173c0.399-0.153,0.801-0.306,1.2-0.457
			C623.498,546.586,627.067,528.715,632.941,511.219z M577.28,206.717c-11.788,0.149-23.787-1.814-36.639,3.064
			c6.448,3.151,11.833,6.412,17.644,8.469c7.806,2.763,15.93,4.641,23.953,6.759c0.849,0.224,1.942-0.481,4.111-1.089
			C578.857,219.629,579.137,212.854,577.28,206.717z M565.938,417.269c13.413-0.089,25.479,1.103,37.201-3.838
			c-10.409-4.296-19.317-10.303-27.108-20.233C572.395,401.867,569.33,409.178,565.938,417.269z M702.228,196.752
			c-5.989,3.353-11.658,6.528-17.677,9.898c1.659,2.697,3.224,5.242,4.807,7.819c-4,2.056-4,2.056-0.166,11.022
			C698.98,222.805,708.623,209.739,702.228,196.752z M634.827,226.424c16.868,0,33.729,0,50.808,0
			c-1.635-6.485-4.768-8.278-10.216-7.068c-3.565,0.792-7.217,1.555-10.846,1.638c-9.797,0.224-19.602,0.077-29.746,0.077
			C634.827,222.939,634.827,224.936,634.827,226.424z M636.759,230.275c2.487,4.754,31.149,15.915,36.273,14.337
			c-4.682-5.586-5.196-7.571-3.61-14.337C658.609,230.275,647.842,230.275,636.759,230.275z M665.225,534.364
			c2.583,2.125,5.284,4.304,7.929,6.549c0.812,0.689,1.468,1.561,2.194,2.348c0.775-0.932,1.89-1.743,2.273-2.815
			c3.412-9.561,6.812-19.129,9.952-28.781c1.155-3.549,1.606-7.326,2.439-11.293c-1.578-0.172-2.287-0.231-2.991-0.33
			c-0.779-0.11-1.554-0.256-2.846-0.473C686.169,515.373,676.36,524.467,665.225,534.364z M630.846,221.306
			c-5.567-1.76-11.185-3.535-16.709-5.281c0,3.939,0,7.559,0,10.098c4.034,0,7.699-0.065,11.353,0.116
			c0.312,0.015,0.542,1.666,1.132,3.621c-4.882-4.01-11.894-2.418-15.074,1.972c2.995,1.612,6.048,3.255,8.097,4.358
			c4.604-1.214,8.721-2.3,12.989-3.426C632.076,229.195,631.461,225.25,630.846,221.306z M609.18,213.248
			c-2.507-2.472-5.253-3.456-7.412-3.577c-1.312-0.074-3.716,2.297-3.957,3.833c-0.455,2.889,3.584,6.462,6.176,5.514
			C605.72,218.383,608.602,219.003,609.18,213.248z M679.697,451.029c-1.614-2.571-3.293-4.785-4.477-7.238
			c-1.735-3.599-3.826-2.562-5.158-0.212c-1.273,2.246-1.561,5.054-2.235,7.45C671.887,451.029,675.51,451.029,679.697,451.029z
			 M681.752,451.584c5.6,1.69,10.547,3.184,14.268,4.307c-2.705-2.686-6.234-6.188-9.781-9.71
			C685.197,447.435,683.596,449.364,681.752,451.584z M690.102,235.18c-0.474-3.344-0.851-5.62-4.097-5.008
			c-1.361,0.256-2.52,1.592-3.771,2.437c0.14,3.581,1.104,5.567,4.239,5.582C688.643,238.176,689.61,236.19,690.102,235.18z"/>
	</g>
</g>
</svg>
